<svg version="1.1" id="Layer_1" xmlns="http://www.w3.org/2000/svg" xmlns:xlink="http://www.w3.org/1999/xlink" x="0px" y="0px"
	 width="100%" viewBox="0 0 380 380" enable-background="new 0 0 380 380" xml:space="preserve">
<path fill="#757575" opacity="1.000000" stroke="none" 
	d="
M308.000000,1.000000 
	C312.689240,1.000000 317.378510,1.000000 322.286621,1.259301 
	C322.667206,1.694413 322.828888,1.870223 323.106873,2.244868 
	C323.417694,2.691797 323.661621,2.873672 324.006042,3.367287 
	C325.127655,10.197209 329.351410,15.148866 335.176025,15.552554 
	C342.742645,16.076979 346.411407,9.544209 348.654999,3.149968 
	C353.038849,3.149968 357.014069,3.149968 360.998138,3.559420 
	C360.982971,7.880486 361.769501,12.016179 360.763245,15.656260 
	C358.776062,22.844612 356.098480,29.889269 353.133270,36.745476 
	C350.669922,42.441227 347.752441,48.025677 344.324249,53.186539 
	C342.327515,56.192478 338.537689,57.959499 336.268616,60.845333 
	C333.815704,63.964901 331.003204,65.065407 327.249390,65.031357 
	C317.095337,64.939270 306.886200,64.350571 296.800110,65.183632 
	C286.716705,66.016472 279.561310,69.260086 277.338226,78.473480 
	C275.417786,86.432785 269.926758,91.637291 266.074860,98.070930 
	C265.185638,99.556145 262.547607,99.994308 260.722290,100.507339 
	C261.233246,97.734100 261.736206,95.367813 262.563599,92.930130 
	C267.381073,90.151390 269.056641,85.916313 270.083313,80.954674 
	C272.438232,69.573715 276.497589,59.281429 289.475403,56.077908 
	C292.856689,55.243244 292.054749,53.345730 290.790710,51.215641 
	C281.234589,35.112389 266.098419,27.593216 248.378876,27.252192 
	C207.245880,26.460556 166.087097,27.069361 124.939110,26.965551 
	C108.705406,26.924595 95.625061,33.372883 85.160301,45.466553 
	C82.758209,48.242546 80.836731,51.434425 78.388451,54.862881 
	C80.295624,55.561520 81.176987,55.942142 82.091324,56.210308 
	C90.424004,58.654198 95.025833,64.592239 94.956245,73.224823 
	C94.928284,76.693962 94.160553,80.161407 94.190491,83.625641 
	C94.227325,87.887466 92.444672,92.657814 96.904221,96.386780 
	C95.657433,101.527672 94.387985,106.279686 92.862671,110.757011 
	C91.624969,106.836952 90.226715,103.244949 89.751244,99.534676 
	C88.863754,92.609436 88.546013,85.612389 87.903587,78.653313 
	C87.801155,77.543694 87.352303,76.425598 86.877480,75.397377 
	C83.777168,68.683716 77.790977,66.254150 71.117607,66.106239 
	C55.968800,65.770470 40.807461,66.000206 25.651217,65.999992 
	C16.092152,65.999863 13.241826,63.649002 11.115199,53.572540 
	C11.890751,51.837158 12.505610,50.408016 13.298979,48.810997 
	C13.689362,48.386986 13.838276,48.098366 13.943958,47.423256 
	C13.625031,44.102127 13.286382,41.135002 12.856100,37.950603 
	C12.611341,37.452492 12.406215,37.216930 12.013635,36.731476 
	C10.923006,35.570259 9.967834,34.704212 9.008911,33.380928 
	C8.651526,26.580004 8.297893,20.236317 8.129802,13.603311 
	C13.244789,11.625562 13.090075,6.585581 15.557800,2.997460 
	C17.313097,3.035459 18.787197,2.689537 19.926075,3.158207 
	C24.197168,4.915840 30.276331,1.851773 33.041840,8.280775 
	C34.681396,10.079840 35.969856,11.910229 37.723400,12.973867 
	C40.117676,14.426151 42.355972,17.503580 46.120293,14.930481 
	C46.957905,14.616523 47.479321,14.306905 48.318588,13.869517 
	C51.137001,11.049495 53.538681,8.254441 56.182587,5.711200 
	C57.386398,4.553226 58.975033,3.455796 60.557796,3.115534 
	C62.627834,2.670517 64.911201,2.721878 67.018822,3.069212 
	C69.854691,3.536559 75.620903,0.742347 73.240425,7.986977 
	C73.169022,8.204262 73.786957,8.660424 74.099785,8.989732 
	C78.763512,13.899029 83.924202,17.105492 91.145630,14.080544 
	C91.874535,13.794978 92.409004,13.318813 93.022934,12.637614 
	C93.274002,12.175217 93.510437,12.011450 94.046799,11.800297 
	C94.498756,11.369061 94.715614,11.078806 95.052750,10.538939 
	C95.498764,9.850718 95.824493,9.412107 96.323364,8.815141 
	C96.704231,8.416328 96.855759,8.144540 96.982590,7.501509 
	C97.362045,6.105580 97.709991,5.049563 98.521576,4.006182 
	C101.756935,4.019074 104.559067,3.763764 107.292076,4.089119 
	C110.216141,4.437219 113.075050,5.332589 116.011375,6.308863 
	C116.729813,7.683148 117.399277,8.737659 118.157837,10.017718 
	C118.398964,10.535477 118.606987,10.780071 119.023453,11.297028 
	C126.467552,16.787916 131.399124,16.337889 137.303329,9.822115 
	C137.691910,9.423481 137.842514,9.148170 137.924362,8.881754 
	C137.916824,8.924136 137.834457,8.899083 138.165375,8.848338 
	C138.697937,7.539375 138.899551,6.281157 139.108246,4.778305 
	C139.267502,4.211604 139.519241,4.021066 140.081406,3.865522 
	C140.563934,3.610900 140.791107,3.403971 141.437927,3.085766 
	C146.601791,3.059170 151.301544,3.095009 156.015747,3.454847 
	C156.650330,4.518319 157.270447,5.257791 157.957932,6.352524 
	C161.658890,14.445564 166.140976,16.569235 173.977875,14.006845 
	C174.466492,13.601826 174.723785,13.346671 175.286865,12.938415 
	C177.554611,10.236591 179.368011,7.550255 181.545029,5.200844 
	C182.540070,4.127015 184.201752,3.259503 185.648560,3.102000 
	C188.592560,2.781508 191.644012,2.690390 194.555832,3.132606 
	C196.153809,3.375289 197.557632,4.896343 199.151276,6.062389 
	C199.422852,6.568405 199.645203,6.802662 199.981659,7.296451 
	C200.375671,8.357538 200.708633,9.108741 201.136505,10.072335 
	C201.387650,10.558652 201.593475,10.788096 202.012451,11.291201 
	C202.413055,11.841273 202.621292,12.115637 202.891357,12.298966 
	C210.939651,17.762699 220.034317,16.693375 222.695496,5.946840 
	C222.998245,4.724236 225.221008,3.150475 226.546509,3.156997 
	C231.214783,3.179971 235.880768,3.812929 240.542923,4.263160 
	C240.692535,4.277610 240.768326,4.833774 240.916931,5.117266 
	C241.948517,7.085137 242.770096,9.210460 244.076126,10.976912 
	C246.541626,14.311596 250.049728,16.611225 254.074310,14.841369 
	C257.368896,13.392528 261.265747,11.087864 262.668488,8.112584 
	C264.520477,4.184417 266.285980,2.537848 270.565277,2.856929 
	C272.320953,2.987839 274.185150,1.662757 276.000000,0.999999 
	C277.714355,1.000000 279.428711,1.000000 281.411285,1.369801 
	C282.161438,3.097147 282.714111,4.434254 283.113403,5.815696 
	C285.090820,12.657500 290.283752,16.203426 296.644043,14.938434 
	C301.199646,14.032381 303.458405,10.443537 306.064575,6.758135 
	C306.912201,5.068085 307.463196,3.561718 308.257690,1.788192 
	C308.334106,1.347356 308.167053,1.173678 308.000000,1.000000 
z"/>
<path fill="#000000" opacity="1.000000" stroke="none" 
	d="
M322.990570,2.046033 
	C322.828888,1.870223 322.667206,1.694413 322.752747,1.259301 
	C342.323059,1.000000 361.646149,1.000000 380.984619,1.000000 
	C380.984619,127.589149 380.984619,254.178299 380.984619,380.883728 
	C254.333405,380.883728 127.666718,380.883728 1.000000,380.883728 
	C1.000000,375.937164 1.000000,370.939789 1.273983,365.412109 
	C1.732189,364.913086 1.916412,364.944336 2.117006,365.351379 
	C4.374413,366.522247 6.615449,367.317352 8.958697,368.305969 
	C9.227766,368.749664 9.448223,368.936584 9.884966,369.269043 
	C10.354467,369.631622 10.661282,369.785553 11.271728,370.105835 
	C12.702839,372.236938 13.830317,374.201660 15.098873,376.531921 
	C20.336496,377.200165 25.549229,378.226105 30.470139,377.435547 
	C32.335552,377.135864 33.528511,372.650330 35.327831,369.893127 
	C38.749416,368.436127 41.871143,367.158630 45.358215,365.929596 
	C47.135864,366.341644 48.548172,366.705231 50.131035,367.358521 
	C51.436081,368.865692 53.295940,369.931946 53.586399,371.325348 
	C55.364754,379.856720 61.906010,377.884399 67.544319,377.995575 
	C68.043678,378.005432 68.558540,377.917175 69.040520,378.009155 
	C72.653915,378.698639 74.432945,376.783875 75.764412,373.711639 
	C79.277924,365.604523 88.325363,364.139709 94.106598,370.734283 
	C96.019264,372.916016 97.242805,376.955536 99.382530,377.428986 
	C104.143471,378.482452 109.335747,378.226929 114.236954,377.601624 
	C115.640732,377.422516 116.826080,374.238770 117.805260,372.279633 
	C120.225456,367.437256 124.638710,366.207428 129.098923,367.291687 
	C132.417740,368.098450 136.644989,370.205963 137.980453,372.946259 
	C139.955093,376.998016 142.018234,378.455505 146.227081,378.045349 
	C149.850235,377.692291 153.523361,377.857971 157.149765,377.525421 
	C157.652649,377.479279 158.322708,375.911499 158.389603,375.009186 
	C158.770035,369.878113 162.328934,367.819183 166.583359,367.165405 
	C172.941788,366.188324 178.649673,368.262085 179.596680,372.899750 
	C180.797409,378.780029 184.384201,378.058044 188.287277,378.001434 
	C190.118561,377.974884 191.986282,377.766571 193.774857,378.044159 
	C197.599838,378.637756 199.801361,376.952698 200.773453,373.452850 
	C201.838303,369.618988 204.395020,367.365051 208.201767,367.161194 
	C212.582138,366.926697 217.310379,366.155518 220.025543,371.311676 
	C222.805481,376.590790 227.014053,379.411469 233.288086,378.020935 
	C234.081711,377.845032 234.952560,377.939575 235.779663,378.006805 
	C238.646530,378.239807 240.389893,377.740387 241.663437,374.375305 
	C243.724548,368.929169 248.257141,366.572632 254.400360,366.979828 
	C259.742798,367.333984 262.431183,370.135223 264.127045,374.783112 
	C264.569977,375.997040 265.902710,377.679016 266.926453,377.752228 
	C271.563660,378.083710 276.248260,378.092743 280.887115,377.785217 
	C281.863190,377.720520 283.139404,375.976868 283.554169,374.760254 
	C285.083313,370.275146 287.682495,367.584778 292.689758,367.004395 
	C299.140656,366.256653 303.744568,369.452209 306.114624,374.458069 
	C307.680298,377.764954 309.301117,378.051514 312.026001,378.003540 
	C314.023590,377.968384 316.049377,377.786835 318.014740,378.040894 
	C322.014404,378.557922 324.414551,377.115204 326.037781,373.302765 
	C327.850098,369.046173 331.210449,367.019135 336.213348,366.942017 
	C341.855652,366.855042 345.224762,369.270599 347.548370,374.058807 
	C349.313416,377.696136 363.546112,379.892883 366.214600,376.958405 
	C366.820374,376.292236 366.703003,375.006500 367.247253,374.239044 
	C368.740112,372.134064 370.011108,369.120209 372.083588,368.324219 
	C377.469055,366.255737 378.745331,362.679077 378.031982,357.553253 
	C377.804596,355.919373 378.350372,354.118622 377.886536,352.593750 
	C377.431702,351.098419 376.408691,349.035339 375.176636,348.636169 
	C366.658936,345.876465 363.687317,336.898438 369.065857,328.652588 
	C369.699951,327.746979 370.197235,326.793610 370.832458,326.690552 
	C378.619659,325.427063 378.547791,319.836975 378.007355,313.938263 
	C377.917786,312.960480 377.923523,311.973969 377.911560,310.598724 
	C377.221100,309.153442 376.684113,307.893433 375.753845,307.087189 
	C372.922302,304.633209 369.938965,302.354401 367.026733,299.668762 
	C366.754272,298.508698 366.469879,297.687225 366.139648,296.478882 
	C366.018127,295.055237 365.942413,294.018433 365.941681,292.629456 
	C368.599579,289.246124 370.706726,285.478790 373.910431,283.408325 
	C376.652771,281.636078 378.182434,280.174622 378.013550,276.968567 
	C377.900543,274.823547 377.817902,272.649200 378.037292,270.520508 
	C378.411804,266.887024 376.368011,265.445404 373.470367,263.882965 
	C370.945221,262.521332 369.050720,259.990112 366.919525,257.588470 
	C365.701630,251.165802 367.240387,244.963776 371.761658,243.422119 
	C377.950195,241.311981 378.571014,237.248245 378.028320,231.965332 
	C377.825043,229.986282 377.900452,227.978607 377.827087,225.628510 
	C377.183258,224.854980 376.612213,224.203232 375.931244,224.054413 
	C367.461975,222.203552 363.134796,210.714233 369.112183,203.710693 
	C370.167389,202.568634 371.091919,201.714676 372.309265,200.890640 
	C373.091980,200.653061 373.581909,200.385544 374.436676,200.071335 
	C375.740173,199.104340 376.678833,198.184036 377.731934,196.855637 
	C377.846405,191.832275 377.846405,187.217010 377.846405,183.336212 
	C374.196075,180.991638 371.079163,178.989655 368.016541,176.609009 
	C367.345276,171.795883 363.968140,167.374725 368.320892,162.858795 
	C369.828125,161.559250 371.018616,160.317352 372.415466,159.048340 
	C372.621826,159.021240 373.025818,158.920898 373.280365,158.875504 
	C373.751617,158.567749 373.968323,158.305405 374.489716,158.032745 
	C375.198547,157.985931 375.602722,157.949417 376.336975,157.920898 
	C377.068024,157.289459 377.468994,156.650024 377.903381,155.674530 
	C377.901978,154.890442 377.867126,154.442413 377.886719,153.534943 
	C377.960785,150.419037 377.837250,147.751709 378.038055,145.109055 
	C378.263306,142.144455 377.308228,140.296204 374.059784,139.722733 
	C373.635406,139.346832 373.329346,139.206604 372.725647,138.931885 
	C371.273499,137.863922 370.118958,136.930450 368.817780,135.666779 
	C365.757050,132.663025 365.388336,129.503281 366.949341,125.659912 
	C366.997040,124.889870 366.980774,124.447075 366.997803,123.681503 
	C367.056915,122.927124 367.082703,122.495506 367.403320,121.902542 
	C370.254059,119.968666 372.839722,118.236931 375.350555,116.402740 
	C376.304047,115.706215 377.791199,114.805367 377.829498,113.944031 
	C378.061615,108.723877 377.945160,103.488213 377.945160,98.262978 
	C371.923859,98.404808 368.162445,95.386833 366.938232,89.610336 
	C365.522858,84.584503 367.275452,80.768959 370.405701,77.034187 
	C378.030426,74.080490 378.036835,74.080452 377.990082,65.895515 
	C377.982635,64.594261 377.887939,63.293499 377.890503,61.587051 
	C378.097931,59.036057 378.087280,57.457672 375.328766,56.400558 
	C372.337799,55.254345 369.840485,52.820053 367.093140,50.533264 
	C366.927856,48.810146 366.801208,47.500847 366.666046,46.192425 
	C366.208923,41.767139 366.598083,36.874557 370.991791,35.273388 
	C378.264496,32.623062 378.682922,27.537058 378.029449,21.356619 
	C377.821808,19.393042 377.996979,17.388987 377.996979,15.305329 
	C376.456909,15.070339 375.165710,14.873327 373.602112,14.425694 
	C371.173706,11.779450 369.017700,9.383829 366.917267,6.655813 
	C366.318634,5.263814 365.664429,4.204210 364.611206,3.079099 
	C363.137878,3.059050 362.063599,3.104509 360.989288,3.149968 
	C357.014069,3.149968 353.038849,3.149968 348.654999,3.149968 
	C346.411407,9.544209 342.742645,16.076979 335.176025,15.552554 
	C329.351410,15.148866 325.127655,10.197209 323.998535,3.090590 
	C323.623413,2.305964 323.307007,2.175998 322.990570,2.046033 
z"/>
<path fill="#6D6D6D" opacity="1.000000" stroke="none" 
	d="
M10.954508,53.878777 
	C13.241826,63.649002 16.092152,65.999863 25.651217,65.999992 
	C40.807461,66.000206 55.968800,65.770470 71.117607,66.106239 
	C77.790977,66.254150 83.777168,68.683716 86.877480,75.397377 
	C87.352303,76.425598 87.801155,77.543694 87.903587,78.653313 
	C88.546013,85.612389 88.863754,92.609436 89.751244,99.534676 
	C90.226715,103.244949 91.624969,106.836952 92.842575,111.088806 
	C93.090889,112.132675 93.103409,112.570076 92.836670,113.054337 
	C92.422760,113.752625 92.288116,114.404068 92.111229,115.495758 
	C90.001900,126.626183 87.934807,137.316345 85.499138,147.914062 
	C84.420403,145.959839 83.198296,144.126083 83.094513,142.231094 
	C82.761757,136.155426 82.923004,130.054657 82.737343,123.968338 
	C82.602577,119.550354 82.267006,115.136223 81.918427,110.728477 
	C81.817726,109.455170 81.743439,107.443977 81.006783,107.077240 
	C76.517937,104.842522 71.924690,101.546646 67.211884,101.274055 
	C53.770115,100.496574 40.254177,101.020500 26.767515,100.990372 
	C21.451780,100.978500 15.599967,102.390579 12.550738,95.893929 
	C12.325224,95.413445 11.420424,95.251801 10.998775,94.625908 
	C17.010002,83.235886 13.331363,75.886703 1.000000,74.000000 
	C1.000000,68.645073 1.000000,63.290142 1.372427,57.627205 
	C4.814738,56.172394 7.884623,55.025585 10.954508,53.878777 
z"/>
<path fill="#5C5C5C" opacity="1.000000" stroke="none" 
	d="
M1.000000,158.000000 
	C1.000000,152.311966 1.000000,146.623917 1.408133,140.542358 
	C4.189420,139.721970 6.562574,139.295090 9.104780,139.174225 
	C10.776986,141.822479 12.477204,144.063797 13.739992,146.529160 
	C15.984081,150.910339 18.985043,153.178741 24.305021,153.125687 
	C34.232983,153.026672 44.289616,152.885025 54.046299,154.374832 
	C58.489510,155.053299 62.378223,159.528946 66.418930,162.421280 
	C66.823349,162.710754 66.480003,163.974792 66.577263,164.775192 
	C67.086563,168.966537 67.457161,173.184555 68.203072,177.334518 
	C68.932327,181.391815 70.520103,185.336075 70.890205,189.406418 
	C71.378441,194.776093 70.958214,200.223633 71.161209,205.628967 
	C71.192352,206.458115 72.471786,207.240387 73.217514,208.459930 
	C72.009323,214.646851 70.757523,220.418213 69.133583,225.987411 
	C68.179070,224.486084 67.142731,223.205963 67.087273,221.884674 
	C66.700203,212.660904 65.013176,203.138901 66.719490,194.286209 
	C68.215797,186.523026 64.207611,182.869568 60.710293,177.881836 
	C58.217163,174.326263 55.303486,172.870102 51.090332,172.955139 
	C43.267315,173.113022 35.438774,173.017990 27.612648,172.992188 
	C23.910994,172.979980 19.808558,174.017944 18.014881,169.030823 
	C17.790546,168.407089 15.968271,168.358063 14.604637,167.844406 
	C11.906232,161.634796 7.750863,158.024979 1.000000,158.000000 
z"/>
<path fill="#000000" opacity="1.000000" stroke="none" 
	d="
M201.041595,9.859941 
	C200.708633,9.108741 200.375671,8.357538 199.974518,7.027065 
	C199.620544,6.245523 199.334778,6.043249 199.048996,5.840979 
	C197.557632,4.896343 196.153809,3.375289 194.555832,3.132606 
	C191.644012,2.690390 188.592560,2.781508 185.648560,3.102000 
	C184.201752,3.259503 182.540070,4.127015 181.545029,5.200844 
	C179.368011,7.550255 177.554611,10.236591 174.994537,12.979947 
	C174.179779,13.501958 173.963181,13.829333 173.746567,14.156710 
	C166.140976,16.569235 161.658890,14.445564 158.011688,5.983082 
	C157.332458,4.549203 156.666870,3.840027 156.001297,3.130849 
	C151.301544,3.095009 146.601791,3.059170 141.181000,3.086506 
	C140.263489,3.420473 140.067017,3.691266 139.870544,3.962058 
	C139.519241,4.021066 139.267502,4.211604 139.025497,5.113950 
	C138.568604,6.762513 138.201538,7.830798 137.834457,8.899082 
	C137.834457,8.899083 137.916824,8.924136 137.683990,8.990016 
	C137.342957,9.363573 137.234756,9.671250 137.126556,9.978930 
	C131.399124,16.337889 126.467552,16.787916 119.029709,11.031298 
	C118.611931,10.227783 118.340332,10.009976 118.068741,9.792169 
	C117.399277,8.737659 116.729813,7.683148 116.067986,5.887165 
	C116.050415,3.763795 116.025208,2.381898 116.000000,1.000000 
	C169.020889,1.000000 222.041794,1.000000 275.531342,0.999999 
	C274.185150,1.662757 272.320953,2.987839 270.565277,2.856929 
	C266.285980,2.537848 264.520477,4.184417 262.668488,8.112584 
	C261.265747,11.087864 257.368896,13.392528 254.074310,14.841369 
	C250.049728,16.611225 246.541626,14.311596 244.076126,10.976912 
	C242.770096,9.210460 241.948517,7.085137 240.916931,5.117266 
	C240.768326,4.833774 240.692535,4.277610 240.542923,4.263160 
	C235.880768,3.812929 231.214783,3.179971 226.546509,3.156997 
	C225.221008,3.150475 222.998245,4.724236 222.695496,5.946840 
	C220.034317,16.693375 210.939651,17.762699 202.891357,12.298966 
	C202.621292,12.115637 202.413055,11.841273 202.011108,11.034777 
	C201.578003,10.260122 201.309799,10.060030 201.041595,9.859941 
z"/>
<path fill="#000000" opacity="1.000000" stroke="none" 
	d="
M93.811707,11.941281 
	C93.510437,12.011450 93.274002,12.175217 92.726013,12.689726 
	C91.883492,13.261229 91.417343,13.575585 90.951195,13.889944 
	C83.924202,17.105492 78.763512,13.899029 74.099785,8.989732 
	C73.786957,8.660424 73.169022,8.204262 73.240425,7.986977 
	C75.620903,0.742347 69.854691,3.536559 67.018822,3.069212 
	C64.911201,2.721878 62.627834,2.670517 60.557796,3.115534 
	C58.975033,3.455796 57.386398,4.553226 56.182587,5.711200 
	C53.538681,8.254441 51.137001,11.049495 47.981194,13.818315 
	C46.818668,14.241529 46.311386,14.588176 45.804100,14.934822 
	C42.355972,17.503580 40.117676,14.426151 37.723400,12.973867 
	C35.969856,11.910229 34.681396,10.079840 33.106682,7.846274 
	C33.018478,5.067566 33.009239,3.033783 33.000000,1.000000 
	C54.354229,1.000000 75.708458,1.000000 97.725082,1.350072 
	C98.277626,2.464611 98.167778,3.229078 98.057930,3.993546 
	C97.709991,5.049563 97.362045,6.105580 96.749893,7.614176 
	C96.373871,8.369003 96.262047,8.671251 96.150223,8.973497 
	C95.824493,9.412107 95.498764,9.850718 94.796661,10.655101 
	C94.217438,11.327676 94.014572,11.634480 93.811707,11.941281 
z"/>
<path fill="#000000" opacity="1.000000" stroke="none" 
	d="
M307.531342,1.000000 
	C308.167053,1.173678 308.334106,1.347356 307.851624,1.751589 
	C306.724060,3.635368 306.245972,5.288592 305.767914,6.941817 
	C303.458405,10.443537 301.199646,14.032381 296.644043,14.938434 
	C290.283752,16.203426 285.090820,12.657500 283.113403,5.815696 
	C282.714111,4.434254 282.161438,3.097147 281.839752,1.369801 
	C290.354218,1.000000 298.708466,1.000000 307.531342,1.000000 
z"/>
<path fill="#000000" opacity="1.000000" stroke="none" 
	d="
M11.115200,53.572540 
	C7.884623,55.025585 4.814738,56.172394 1.372427,57.159599 
	C1.000000,48.979099 1.000000,40.958202 1.366654,32.298290 
	C4.159759,32.385574 6.586210,33.111870 9.012661,33.838165 
	C9.967834,34.704212 10.923006,35.570259 12.009903,36.991089 
	C12.410329,37.753212 12.679030,37.960541 12.947732,38.167873 
	C13.286382,41.135002 13.625031,44.102127 13.708151,47.551212 
	C13.341903,48.348404 13.231186,48.663639 13.120470,48.978874 
	C12.505610,50.408016 11.890751,51.837158 11.115200,53.572540 
z"/>
<path fill="#000000" opacity="1.000000" stroke="none" 
	d="
M0.999999,349.000000 
	C1.000000,340.979095 1.000000,332.958191 1.379892,324.428192 
	C4.461901,325.008392 7.164019,326.097687 10.047621,327.462433 
	C11.792404,329.871948 13.355703,332.006012 14.942721,334.541534 
	C14.933077,339.961853 13.290923,344.198395 8.689852,347.243683 
	C7.241349,347.601990 6.128757,347.875977 4.681629,348.243164 
	C3.231395,348.557556 2.115696,348.778778 0.999999,349.000000 
z"/>
<path fill="#000000" opacity="1.000000" stroke="none" 
	d="
M0.999999,307.000000 
	C1.000000,299.312408 1.000000,291.624847 1.403211,283.402100 
	C4.191454,283.284698 6.576487,283.702423 9.137126,284.410065 
	C15.216183,289.688171 15.931408,293.411530 12.396500,300.098907 
	C11.963293,300.918457 11.986307,301.979126 11.551665,303.088928 
	C10.541128,303.857452 9.776831,304.465088 8.663754,305.189514 
	C5.876649,305.870850 3.438324,306.435425 0.999999,307.000000 
z"/>
<path fill="#000000" opacity="1.000000" stroke="none" 
	d="
M8.935728,138.868210 
	C6.562574,139.295090 4.189420,139.721970 1.408133,140.074417 
	C1.000000,132.312424 1.000000,124.624847 1.386718,116.339775 
	C3.829215,116.202179 5.884994,116.662086 8.135580,117.402603 
	C12.919798,120.050110 13.774650,124.580589 14.587650,129.175858 
	C13.168858,131.908081 12.032619,134.436050 10.640154,137.076675 
	C9.901196,137.748947 9.418463,138.308578 8.935728,138.868210 
z"/>
<path fill="#000000" opacity="1.000000" stroke="none" 
	d="
M1.000000,266.000000 
	C1.000000,257.979095 1.000000,249.958191 1.389645,241.379166 
	C4.152869,241.609924 6.526448,242.398804 9.109146,243.450867 
	C10.933194,245.804276 12.548123,247.894470 14.136484,250.354401 
	C13.941591,252.716690 13.982555,254.754303 13.564966,256.693176 
	C12.399121,262.106232 6.643633,262.640106 3.142711,265.945496 
	C2.219840,265.973236 1.609920,265.986603 1.000000,266.000000 
z"/>
<path fill="#000000" opacity="1.000000" stroke="none" 
	d="
M1.000001,224.000000 
	C1.000000,215.979095 1.000000,207.958191 1.370391,199.368500 
	C3.447726,199.216599 5.154670,199.633484 7.020760,200.359207 
	C13.715575,205.448517 15.626462,209.528137 13.861782,214.926788 
	C13.881638,214.962524 13.904944,214.884140 13.624434,215.069031 
	C12.812697,216.477463 12.281471,217.701004 11.563749,218.992493 
	C11.141857,219.211563 10.991863,219.423233 10.687950,219.858429 
	C10.229853,220.334427 10.011080,220.647430 9.521442,221.110535 
	C8.178927,221.873322 7.107276,222.486008 5.662824,223.102493 
	C3.860016,223.404205 2.430009,223.702103 1.000001,224.000000 
z"/>
<path fill="#000000" opacity="1.000000" stroke="none" 
	d="
M1.000000,158.468643 
	C7.750863,158.024979 11.906232,161.634796 14.613752,168.225067 
	C14.253819,171.499527 13.603016,174.194962 12.655351,177.050415 
	C10.218379,178.767334 8.078270,180.324249 5.567043,181.903580 
	C4.455201,181.979767 3.714478,182.033554 2.734135,182.127502 
	C2.177350,182.366501 2.060283,182.648438 1.856082,183.129288 
	C1.379234,183.163406 1.189617,183.081711 1.000000,183.000000 
	C1.000000,174.979095 1.000000,166.958191 1.000000,158.468643 
z"/>
<path fill="#000000" opacity="1.000000" stroke="none" 
	d="
M1.000000,74.468636 
	C13.331363,75.886703 17.010002,83.235886 10.716801,94.780487 
	C8.850158,96.211662 7.432844,97.172226 5.596564,98.079102 
	C3.785065,98.016945 2.392532,98.008476 1.000000,98.000000 
	C1.000000,90.312424 1.000000,82.624847 1.000000,74.468636 
z"/>
<path fill="#3A3A3A" opacity="1.000000" stroke="none" 
	d="
M0.999999,307.467590 
	C3.438324,306.435425 5.876649,305.870850 8.657433,305.617798 
	C9.778758,311.437256 10.705611,316.931000 11.239760,322.462616 
	C11.386192,323.979065 10.356250,325.609070 9.866135,327.186981 
	C7.164019,326.097687 4.461901,325.008392 1.379892,323.959534 
	C1.000000,318.645081 1.000000,313.290131 0.999999,307.467590 
z"/>
<path fill="#000000" opacity="1.000000" stroke="none" 
	d="
M15.122702,2.987527 
	C13.090075,6.585581 13.244789,11.625562 7.739137,13.665062 
	C5.108618,14.344089 3.054309,14.672045 1.000000,15.000000 
	C1.000000,10.409401 1.000000,5.818802 1.000000,1.000000 
	C5.348905,1.000000 9.700325,1.000000 14.846048,1.247822 
	C15.467803,1.992938 15.295253,2.490233 15.122702,2.987527 
z"/>
<path fill="#4A4A4A" opacity="1.000000" stroke="none" 
	d="
M1.000001,224.467606 
	C2.430009,223.702103 3.860016,223.404205 5.842946,223.409836 
	C9.121024,229.961731 11.347385,236.274216 8.900028,243.187683 
	C6.526448,242.398804 4.152869,241.609924 1.389645,240.910522 
	C1.000000,235.645065 1.000000,230.290146 1.000001,224.467606 
z"/>
<path fill="#6E6E6E" opacity="1.000000" stroke="none" 
	d="
M1.000000,15.467606 
	C3.054309,14.672045 5.108618,14.344089 7.553593,13.954382 
	C8.297893,20.236317 8.651526,26.580004 9.008911,33.380928 
	C6.586210,33.111870 4.159759,32.385574 1.366654,31.829639 
	C1.000000,26.645071 1.000000,21.290142 1.000000,15.467606 
z"/>
<path fill="#505050" opacity="1.000000" stroke="none" 
	d="
M1.000000,183.466858 
	C1.189617,183.081711 1.379234,183.163406 2.022079,183.001099 
	C2.683975,182.565475 2.850124,182.342224 2.973755,182.087341 
	C3.714478,182.033554 4.455201,181.979767 5.727378,182.255981 
	C7.172022,186.934021 8.316285,191.253418 8.861237,195.647141 
	C9.030426,197.011230 7.573874,198.576965 6.861613,200.050385 
	C5.154670,199.633484 3.447726,199.216599 1.370391,198.899857 
	C1.000000,193.977905 1.000000,188.955811 1.000000,183.466858 
z"/>
<path fill="#5F5F5F" opacity="1.000000" stroke="none" 
	d="
M1.000000,98.467941 
	C2.392532,98.008476 3.785065,98.016945 5.666430,98.464142 
	C7.006339,103.053192 8.045344,107.177628 8.622312,111.365707 
	C8.877493,113.218018 8.196678,115.199272 7.940772,117.121994 
	C5.884994,116.662086 3.829215,116.202179 1.386718,115.871140 
	C1.000000,110.311958 1.000000,104.623917 1.000000,98.467941 
z"/>
<path fill="#424242" opacity="1.000000" stroke="none" 
	d="
M1.000000,266.467590 
	C1.609920,265.986603 2.219840,265.973236 3.588140,265.954041 
	C5.231110,265.965118 6.115701,265.981964 7.000136,266.436768 
	C7.653828,272.623230 8.307674,278.371674 8.961520,284.120148 
	C6.576487,283.702423 4.191454,283.284698 1.403211,282.933472 
	C1.000000,277.645081 1.000000,272.290131 1.000000,266.467590 
z"/>
<path fill="#353535" opacity="1.000000" stroke="none" 
	d="
M0.999999,349.466858 
	C2.115696,348.778778 3.231395,348.557556 4.677258,348.682617 
	C5.688393,354.407776 6.369363,359.786621 7.073749,365.350433 
	C5.591195,365.238678 3.845916,365.107117 2.100636,364.975555 
	C1.916412,364.944336 1.732189,364.913086 1.273983,364.940918 
	C1.000000,359.977905 1.000000,354.955811 0.999999,349.466858 
z"/>
<path fill="#7F7F7F" opacity="1.000000" stroke="none" 
	d="
M98.521576,4.006182 
	C98.167778,3.229078 98.277626,2.464611 98.193741,1.350072 
	C103.688042,1.000000 109.376083,1.000000 115.532059,1.000000 
	C116.025208,2.381898 116.050415,3.763795 116.019012,5.567390 
	C113.075050,5.332589 110.216141,4.437219 107.292076,4.089119 
	C104.559067,3.763764 101.756935,4.019074 98.521576,4.006182 
z"/>
<path fill="#7F7F7F" opacity="1.000000" stroke="none" 
	d="
M15.557801,2.997460 
	C15.295253,2.490233 15.467803,1.992938 15.320177,1.247822 
	C20.688040,1.000000 26.376081,1.000000 32.532059,1.000000 
	C33.009239,3.033783 33.018478,5.067566 32.962875,7.535850 
	C30.276331,1.851773 24.197168,4.915840 19.926075,3.158207 
	C18.787197,2.689537 17.313097,3.035459 15.557801,2.997460 
z"/>
<path fill="#FEFEFE" opacity="1.000000" stroke="none" 
	d="
M69.505722,226.189560 
	C70.757523,220.418213 72.009323,214.646851 73.414276,208.136993 
	C74.366547,203.265656 75.165680,199.132812 76.178497,194.664337 
	C77.349022,189.361343 78.305862,184.393997 79.505745,179.107544 
	C81.788437,168.527802 83.828072,158.267151 85.867706,148.006516 
	C87.934807,137.316345 90.001900,126.626183 92.404587,115.365768 
	C92.865440,114.199509 92.990692,113.603493 93.115936,113.007477 
	C93.103409,112.570076 93.090889,112.132675 93.098450,111.363480 
	C94.387985,106.279686 95.657433,101.527672 97.087387,96.034058 
	C97.709984,92.923088 98.172073,90.553741 98.796738,87.857025 
	C100.028740,81.260765 100.763535,74.908836 102.290871,68.753578 
	C103.233238,64.955742 105.383530,61.457642 107.456169,57.894676 
	C143.496811,57.970284 179.072815,57.993279 214.648788,57.974697 
	C231.768265,57.965755 248.887711,57.878387 266.418396,57.893105 
	C270.613220,58.077515 268.852234,60.758217 268.559998,62.272987 
	C266.900452,70.874596 265.023071,79.434174 263.099976,88.355164 
	C262.733154,90.135345 262.486176,91.568436 262.239197,93.001526 
	C261.736206,95.367813 261.233246,97.734100 260.509766,100.814323 
	C260.012665,105.962479 257.893677,107.448456 253.273499,107.368515 
	C236.323563,107.075203 219.365051,107.237938 202.409973,107.290886 
	C185.627899,107.343292 168.846085,107.470474 151.649017,107.439713 
	C144.286240,107.142891 144.286240,107.142891 143.212585,115.429367 
	C140.467667,127.980431 137.869217,140.149811 135.185043,152.720749 
	C141.160324,152.720749 146.085251,152.720749 151.469650,152.815918 
	C198.465576,152.938477 245.002029,152.967209 291.538483,152.982239 
	C292.361023,152.982498 293.183655,152.818466 294.414673,152.832962 
	C296.216858,152.871399 297.610535,152.807953 299.373199,152.845367 
	C300.496918,152.877808 301.251709,152.809387 302.399719,152.844482 
	C303.866608,152.878204 304.940308,152.808380 306.458313,152.839661 
	C309.937439,152.876572 312.972229,152.812393 316.422821,152.851349 
	C318.444824,153.051086 320.051025,153.147705 322.180939,153.275818 
	C320.307831,161.441849 318.525330,169.212784 316.532898,177.289551 
	C315.545715,182.953049 313.572388,187.586472 309.096191,191.043732 
	C307.052643,192.622116 305.489136,194.822037 303.784485,196.793732 
	C303.860992,196.847397 303.748688,196.697983 303.449951,196.804703 
	C302.320465,197.842560 301.489777,198.773697 300.726868,199.748779 
	C300.794617,199.792740 300.708527,199.656052 300.423065,199.758514 
	C299.465240,200.586884 298.792877,201.312805 297.820465,202.191803 
	C291.946289,207.870224 286.372162,213.395599 280.494141,219.047668 
	C272.767334,226.386490 265.344421,233.598602 257.615967,240.957092 
	C254.528519,244.041595 251.746613,246.979721 248.650391,250.039978 
	C237.775742,261.395874 227.215408,272.629639 216.509048,284.018738 
	C223.651062,284.711548 231.836044,285.505554 240.416458,286.454468 
	C250.210983,285.715118 259.807770,285.720062 268.961060,283.707733 
	C281.488525,280.953705 293.678986,276.666809 306.424622,273.028625 
	C307.124054,274.645233 307.412720,276.270172 307.471497,278.191193 
	C305.874542,285.326385 304.507538,292.165497 302.961609,299.357605 
	C301.867981,303.923584 301.128754,308.186615 299.947632,312.323456 
	C299.508148,313.862671 298.338959,315.724854 296.986206,316.390564 
	C281.913971,323.807465 266.016785,329.109253 249.170135,328.727509 
	C234.456604,328.394043 219.775452,326.123474 205.106598,324.472504 
	C191.132004,322.899658 177.294861,322.332153 163.556488,327.799316 
	C161.593079,327.804779 159.987228,332.283997 158.249115,327.520782 
	C155.758438,323.122192 153.377289,319.065369 150.946472,314.674072 
	C149.927887,312.893158 148.958984,311.446777 148.037720,309.676514 
	C147.176926,308.183624 146.268494,307.014557 145.351166,305.605164 
	C145.197647,304.926178 145.053024,304.487549 144.909943,303.759735 
	C143.913132,301.981293 142.914734,300.492035 141.949768,298.692078 
	C142.047302,297.764679 142.111420,297.147980 142.476608,296.394501 
	C143.503891,295.447693 144.230087,294.637695 145.253906,293.691437 
	C154.365372,284.696960 163.179184,275.838776 172.311569,266.876160 
	C181.110291,258.239990 189.590439,249.708252 198.381592,241.040955 
	C205.840485,233.725098 212.988373,226.544815 220.439819,219.203003 
	C227.475739,212.319107 234.208099,205.596741 241.256989,198.774338 
	C242.334747,197.712784 243.095947,196.751266 244.165665,195.400055 
	C242.689804,195.400055 241.797592,195.400055 240.446686,195.339233 
	C202.073349,195.278427 164.158691,195.278427 125.838829,195.278427 
	C124.208145,203.752075 122.644394,211.877914 120.915833,220.352386 
	C119.551056,226.468842 118.351082,232.236633 117.015289,238.375305 
	C115.025558,247.501770 113.171661,256.257385 111.147263,265.387024 
	C108.778419,276.174713 106.580086,286.588348 104.238434,297.360168 
	C104.050888,298.478668 104.006668,299.238953 103.740662,300.297729 
	C101.345894,301.060272 99.172897,301.524323 96.541901,301.880798 
	C85.055939,301.844116 74.027977,301.914978 62.564480,301.880737 
	C59.520992,301.775635 56.913033,301.775635 53.826305,301.775635 
	C54.207481,299.471252 54.493866,297.739929 54.905708,295.618561 
	C56.973270,285.486755 58.915367,275.745026 61.030510,265.650879 
	C63.054012,256.320007 64.904465,247.341553 66.911911,238.029434 
	C67.881180,233.860367 68.693451,230.024963 69.505722,226.189560 
z"/>
<path fill="#6E6E6E" opacity="1.000000" stroke="none" 
	d="
M151.010178,152.720749 
	C146.085251,152.720749 141.160324,152.720749 135.185043,152.720749 
	C137.869217,140.149811 140.467667,127.980431 143.534988,115.357063 
	C146.690628,112.457008 149.377380,110.010933 152.064148,107.564865 
	C168.846085,107.470474 185.627899,107.343292 202.409973,107.290886 
	C219.365051,107.237938 236.323563,107.075203 253.273499,107.368515 
	C257.893677,107.448456 260.012665,105.962479 260.501770,101.221283 
	C262.547607,99.994308 265.185638,99.556145 266.074860,98.070930 
	C269.926758,91.637291 275.417786,86.432785 277.338226,78.473480 
	C279.561310,69.260086 286.716705,66.016472 296.800110,65.183632 
	C306.886200,64.350571 317.095337,64.939270 327.249390,65.031357 
	C331.003204,65.065407 333.815704,63.964901 336.268616,60.845333 
	C338.537689,57.959499 342.327515,56.192478 344.324249,53.186539 
	C347.752441,48.025677 350.669922,42.441227 353.133270,36.745476 
	C356.098480,29.889269 358.776062,22.844612 360.763245,15.656260 
	C361.769501,12.016179 360.982971,7.880486 360.998138,3.559420 
	C362.063599,3.104509 363.137878,3.059050 364.610352,3.427366 
	C365.626251,4.890165 366.243988,5.939188 366.861694,6.988210 
	C369.017700,9.383829 371.173706,11.779450 373.199036,14.530302 
	C371.328156,17.589714 369.135620,20.108002 367.933472,23.033272 
	C364.459198,31.487349 362.735626,40.979877 357.881104,48.483906 
	C346.391937,66.243629 335.421753,84.634338 318.860352,98.465836 
	C316.666290,100.298271 313.467010,101.628494 310.626526,101.855484 
	C301.700317,102.568810 292.546570,101.683937 283.824615,103.287346 
	C277.449432,104.459343 270.589935,105.375847 264.973206,110.173119 
	C261.259888,113.344688 256.187469,115.473358 251.375946,116.662849 
	C246.142899,117.956520 240.509262,117.915558 235.047333,117.947250 
	C213.400116,118.072838 191.751526,117.950249 170.104050,118.051506 
	C166.811340,118.066902 163.444916,118.458122 160.245621,119.228203 
	C151.312836,121.378372 145.511093,129.868729 147.032196,139.005188 
	C147.808609,143.668549 149.650101,148.154572 151.010178,152.720749 
z"/>
<path fill="#767676" opacity="1.000000" stroke="none" 
	d="
M98.634155,88.184387 
	C98.172073,90.553741 97.709984,92.923088 97.064728,95.645172 
	C92.444672,92.657814 94.227325,87.887466 94.190491,83.625641 
	C94.160553,80.161407 94.928284,76.693962 94.956245,73.224823 
	C95.025833,64.592239 90.424004,58.654198 82.091324,56.210308 
	C81.176987,55.942142 80.295624,55.561520 78.388451,54.862881 
	C80.836731,51.434425 82.758209,48.242546 85.160301,45.466553 
	C95.625061,33.372883 108.705406,26.924595 124.939110,26.965551 
	C166.087097,27.069361 207.245880,26.460556 248.378876,27.252192 
	C266.098419,27.593216 281.234589,35.112389 290.790710,51.215641 
	C292.054749,53.345730 292.856689,55.243244 289.475403,56.077908 
	C276.497589,59.281429 272.438232,69.573715 270.083313,80.954674 
	C269.056641,85.916313 267.381073,90.151390 262.563599,92.930130 
	C262.486176,91.568436 262.733154,90.135345 263.461273,88.322540 
	C264.970276,86.051025 266.308472,84.260887 266.967651,82.248337 
	C268.920441,76.286003 269.686951,69.731537 272.640045,64.354767 
	C275.929138,58.366177 276.104095,53.470592 270.620270,49.390217 
	C263.867249,44.365459 255.867264,43.156067 247.927673,43.110687 
	C206.646194,42.874741 165.359253,42.731632 124.083099,43.256557 
	C116.913773,43.347733 109.563118,46.215069 102.709175,48.867310 
	C96.862740,51.129681 94.386963,56.171406 96.274925,61.282017 
	C99.018494,68.708755 97.913544,75.924637 97.024361,83.331154 
	C96.840530,84.862411 98.060944,86.562248 98.634155,88.184387 
z"/>
<path fill="#7F7F7F" opacity="1.000000" stroke="none" 
	d="
M306.064575,6.758134 
	C306.245972,5.288592 306.724060,3.635368 307.608154,2.018747 
	C307.463196,3.561718 306.912201,5.068085 306.064575,6.758134 
z"/>
<path fill="#767676" opacity="1.000000" stroke="none" 
	d="
M156.015747,3.454849 
	C156.666870,3.840027 157.332458,4.549203 157.944305,5.627821 
	C157.270447,5.257791 156.650330,4.518319 156.015747,3.454849 
z"/>
<path fill="#767676" opacity="1.000000" stroke="none" 
	d="
M138.165375,8.848337 
	C138.201538,7.830798 138.568604,6.762513 139.018433,5.358583 
	C138.899551,6.281157 138.697937,7.539375 138.165375,8.848337 
z"/>
<path fill="#767676" opacity="1.000000" stroke="none" 
	d="
M91.145630,14.080544 
	C91.417343,13.575585 91.883492,13.261229 92.646561,12.894760 
	C92.409004,13.318813 91.874535,13.794978 91.145630,14.080544 
z"/>
<path fill="#7F7F7F" opacity="1.000000" stroke="none" 
	d="
M46.120293,14.930482 
	C46.311386,14.588176 46.818668,14.241529 47.663345,13.946084 
	C47.479321,14.306905 46.957905,14.616523 46.120293,14.930482 
z"/>
<path fill="#767676" opacity="1.000000" stroke="none" 
	d="
M13.298980,48.810997 
	C13.231186,48.663639 13.341903,48.348404 13.688426,47.905212 
	C13.838276,48.098366 13.689362,48.386986 13.298980,48.810997 
z"/>
<path fill="#767676" opacity="1.000000" stroke="none" 
	d="
M12.856100,37.950603 
	C12.679030,37.960541 12.410329,37.753212 12.145359,37.286263 
	C12.406215,37.216930 12.611341,37.452492 12.856100,37.950603 
z"/>
<path fill="#797979" opacity="1.000000" stroke="none" 
	d="
M173.977875,14.006845 
	C173.963181,13.829333 174.179779,13.501958 174.688721,13.133049 
	C174.723785,13.346671 174.466492,13.601826 173.977875,14.006845 
z"/>
<path fill="#767676" opacity="1.000000" stroke="none" 
	d="
M94.046799,11.800299 
	C94.014572,11.634480 94.217438,11.327676 94.676392,10.904712 
	C94.715614,11.078806 94.498756,11.369061 94.046799,11.800299 
z"/>
<path fill="#767676" opacity="1.000000" stroke="none" 
	d="
M201.136505,10.072332 
	C201.309799,10.060030 201.578003,10.260122 201.847565,10.716639 
	C201.593475,10.788096 201.387650,10.558652 201.136505,10.072332 
z"/>
<path fill="#767676" opacity="1.000000" stroke="none" 
	d="
M118.157837,10.017718 
	C118.340332,10.009976 118.611931,10.227783 118.877266,10.711321 
	C118.606987,10.780071 118.398964,10.535477 118.157837,10.017718 
z"/>
<path fill="#767676" opacity="1.000000" stroke="none" 
	d="
M137.303329,9.822115 
	C137.234756,9.671250 137.342957,9.363573 137.691528,8.947634 
	C137.842514,9.148170 137.691910,9.423481 137.303329,9.822115 
z"/>
<path fill="#767676" opacity="1.000000" stroke="none" 
	d="
M96.323372,8.815142 
	C96.262047,8.671251 96.373871,8.369003 96.718391,7.954088 
	C96.855759,8.144540 96.704231,8.416328 96.323372,8.815142 
z"/>
<path fill="#767676" opacity="1.000000" stroke="none" 
	d="
M199.151276,6.062386 
	C199.334778,6.043249 199.620544,6.245523 199.913452,6.717182 
	C199.645203,6.802662 199.422852,6.568405 199.151276,6.062386 
z"/>
<path fill="#767676" opacity="1.000000" stroke="none" 
	d="
M140.081406,3.865523 
	C140.067017,3.691266 140.263489,3.420473 140.716888,3.148941 
	C140.791107,3.403971 140.563934,3.610900 140.081406,3.865523 
z"/>
<path fill="#7F7F7F" opacity="1.000000" stroke="none" 
	d="
M323.106873,2.244867 
	C323.307007,2.175998 323.623413,2.305964 323.947388,2.712628 
	C323.661621,2.873672 323.417694,2.691797 323.106873,2.244867 
z"/>
<path fill="#2B2B2B" opacity="1.000000" stroke="none" 
	d="
M368.993134,328.999908 
	C363.687317,336.898438 366.658936,345.876465 375.176636,348.636169 
	C376.408691,349.035339 377.431702,351.098419 377.886536,352.593750 
	C378.350372,354.118622 377.804596,355.919373 378.031982,357.553253 
	C378.745331,362.679077 377.469055,366.255737 372.083588,368.324219 
	C370.011108,369.120209 368.740112,372.134064 367.247253,374.239044 
	C366.703003,375.006500 366.820374,376.292236 366.214600,376.958405 
	C363.546112,379.892883 349.313416,377.696136 347.548370,374.058807 
	C345.224762,369.270599 341.855652,366.855042 336.213348,366.942017 
	C331.210449,367.019135 327.850098,369.046173 326.037781,373.302765 
	C324.414551,377.115204 322.014404,378.557922 318.014740,378.040894 
	C316.049377,377.786835 314.023590,377.968384 312.026001,378.003540 
	C309.301117,378.051514 307.680298,377.764954 306.114624,374.458069 
	C303.744568,369.452209 299.140656,366.256653 292.689758,367.004395 
	C287.682495,367.584778 285.083313,370.275146 283.554169,374.760254 
	C283.139404,375.976868 281.863190,377.720520 280.887115,377.785217 
	C276.248260,378.092743 271.563660,378.083710 266.926453,377.752228 
	C265.902710,377.679016 264.569977,375.997040 264.127045,374.783112 
	C262.431183,370.135223 259.742798,367.333984 254.400360,366.979828 
	C248.257141,366.572632 243.724548,368.929169 241.663437,374.375305 
	C240.389893,377.740387 238.646530,378.239807 235.779663,378.006805 
	C234.952560,377.939575 234.081711,377.845032 233.288086,378.020935 
	C227.014053,379.411469 222.805481,376.590790 220.025543,371.311676 
	C217.310379,366.155518 212.582138,366.926697 208.201767,367.161194 
	C204.395020,367.365051 201.838303,369.618988 200.773453,373.452850 
	C199.801361,376.952698 197.599838,378.637756 193.774857,378.044159 
	C191.986282,377.766571 190.118561,377.974884 188.287277,378.001434 
	C184.384201,378.058044 180.797409,378.780029 179.596680,372.899750 
	C178.649673,368.262085 172.941788,366.188324 166.583359,367.165405 
	C162.328934,367.819183 158.770035,369.878113 158.389603,375.009186 
	C158.322708,375.911499 157.652649,377.479279 157.149765,377.525421 
	C153.523361,377.857971 149.850235,377.692291 146.227081,378.045349 
	C142.018234,378.455505 139.955093,376.998016 137.980453,372.946259 
	C136.644989,370.205963 132.417740,368.098450 129.098923,367.291687 
	C124.638710,366.207428 120.225456,367.437256 117.805260,372.279633 
	C116.826080,374.238770 115.640732,377.422516 114.236954,377.601624 
	C109.335747,378.226929 104.143471,378.482452 99.382530,377.428986 
	C97.242805,376.955536 96.019264,372.916016 94.106598,370.734283 
	C88.325363,364.139709 79.277924,365.604523 75.764412,373.711639 
	C74.432945,376.783875 72.653915,378.698639 69.040520,378.009155 
	C68.558540,377.917175 68.043678,378.005432 67.544319,377.995575 
	C61.906010,377.884399 55.364754,379.856720 53.586399,371.325348 
	C53.295940,369.931946 51.436081,368.865692 50.306442,367.053436 
	C51.762917,365.396301 53.086674,364.059753 54.685925,363.313873 
	C70.960960,355.723419 87.537491,348.727814 103.490524,340.518127 
	C112.830444,335.711670 122.735634,333.459564 132.657181,331.046509 
	C135.660782,330.315948 139.481018,331.196106 142.462662,332.446350 
	C151.804764,336.363617 160.852692,340.885193 171.473938,340.052948 
	C178.743958,339.483246 186.093018,338.784241 193.336990,339.243408 
	C211.692139,340.406799 229.862762,343.266235 248.390549,343.277466 
	C267.157288,343.288849 284.199554,336.757690 301.886932,332.519867 
	C308.455505,330.946075 315.030518,328.384979 321.647888,328.231934 
	C337.415283,327.867249 353.209656,328.669189 368.993134,328.999908 
z"/>
<path fill="#676767" opacity="1.000000" stroke="none" 
	d="
M151.469650,152.815918 
	C149.650101,148.154572 147.808609,143.668549 147.032196,139.005188 
	C145.511093,129.868729 151.312836,121.378372 160.245621,119.228203 
	C163.444916,118.458122 166.811340,118.066902 170.104050,118.051506 
	C191.751526,117.950249 213.400116,118.072838 235.047333,117.947250 
	C240.509262,117.915558 246.142899,117.956520 251.375946,116.662849 
	C256.187469,115.473358 261.259888,113.344688 264.973206,110.173119 
	C270.589935,105.375847 277.449432,104.459343 283.824615,103.287346 
	C292.546570,101.683937 301.700317,102.568810 310.626526,101.855484 
	C313.467010,101.628494 316.666290,100.298271 318.860352,98.465836 
	C335.421753,84.634338 346.391937,66.243629 357.881104,48.483906 
	C362.735626,40.979877 364.459198,31.487349 367.933472,23.033272 
	C369.135620,20.108002 371.328156,17.589714 373.471436,14.780924 
	C375.165710,14.873327 376.456909,15.070339 377.996979,15.305329 
	C377.996979,17.388987 377.821808,19.393042 378.029449,21.356619 
	C378.682922,27.537058 378.264496,32.623062 370.991791,35.273388 
	C366.598083,36.874557 366.208923,41.767139 366.666046,46.192425 
	C366.801208,47.500847 366.927856,48.810146 366.792053,50.697044 
	C360.187866,58.242966 353.275604,64.777878 347.629913,72.267548 
	C335.275452,88.657158 324.345306,106.195122 308.889679,120.015747 
	C303.222229,125.083672 297.712555,129.495605 288.629852,129.301300 
	C253.825806,128.556747 218.996201,128.954041 184.176468,129.047440 
	C178.544403,129.062546 172.907928,129.627090 167.288177,130.108932 
	C166.222580,130.200302 165.226318,131.100464 164.198059,131.627441 
	C164.213150,132.322372 164.228241,133.017288 164.243332,133.712219 
	C168.637070,134.474045 173.021698,135.835373 177.425995,135.902298 
	C210.877548,136.410568 244.332840,136.678802 277.787262,136.989609 
	C285.468842,137.060974 293.663116,144.950974 294.006226,152.731079 
	C293.183655,152.818466 292.361023,152.982498 291.538483,152.982239 
	C245.002029,152.967209 198.465576,152.938477 151.469650,152.815918 
z"/>
<path fill="#353535" opacity="1.000000" stroke="none" 
	d="
M307.701385,277.895081 
	C307.412720,276.270172 307.124054,274.645233 306.244263,272.709961 
	C305.075470,270.877563 304.801361,269.117767 303.842987,267.893799 
	C302.654022,266.375336 300.841644,264.160034 299.397614,264.232117 
	C293.252533,264.538696 285.823853,261.426208 282.019226,269.564484 
	C281.856842,269.911865 281.174805,270.080109 280.701416,270.208923 
	C271.753387,272.643402 262.934601,276.021301 253.424820,274.841888 
	C251.952835,274.659332 250.671158,272.942291 249.301453,271.934875 
	C250.273056,270.755280 251.021225,269.199951 252.257217,268.465027 
	C256.336639,266.039368 261.261444,264.624054 264.610046,261.485474 
	C268.735931,257.618347 273.052551,256.810242 278.220520,256.948669 
	C285.705750,257.149078 293.200409,257.020264 300.690826,256.983429 
	C302.274384,256.975616 303.856873,256.758667 305.754333,256.614136 
	C305.356293,254.859619 305.091156,253.690887 304.707703,252.000610 
	C306.953247,252.000610 308.758453,252.000626 310.563629,252.000626 
	C324.213135,252.000610 337.862671,251.995743 351.512177,252.002823 
	C357.402069,252.005875 363.876617,250.530121 366.877563,257.975708 
	C369.050720,259.990112 370.945221,262.521332 373.470367,263.882965 
	C376.368011,265.445404 378.411804,266.887024 378.037292,270.520508 
	C377.817902,272.649200 377.900543,274.823547 378.013550,276.968567 
	C378.182434,280.174622 376.652771,281.636078 373.910431,283.408325 
	C370.706726,285.478790 368.599579,289.246124 365.485779,292.634857 
	C354.308929,292.994598 343.658386,293.186676 333.018768,292.928497 
	C326.493042,292.770111 322.234863,295.678345 318.407837,300.703674 
	C314.035950,306.444458 309.159027,311.880859 303.970642,316.900787 
	C296.358185,324.266083 286.861328,327.432922 276.461395,329.596100 
	C253.650269,334.340881 231.013840,333.331726 208.201904,330.370483 
	C200.829788,329.413513 193.326752,329.261047 185.878113,329.164642 
	C180.259415,329.091919 174.631821,329.886169 169.008545,329.881165 
	C167.305893,329.879639 165.604477,328.497986 163.902481,327.748505 
	C177.294861,322.332153 191.132004,322.899658 205.106598,324.472504 
	C219.775452,326.123474 234.456604,328.394043 249.170135,328.727509 
	C266.016785,329.109253 281.913971,323.807465 296.986206,316.390564 
	C298.338959,315.724854 299.508148,313.862671 299.947632,312.323456 
	C301.128754,308.186615 301.867981,303.923584 303.297211,299.286133 
	C308.621368,294.808807 309.752075,289.202881 309.872894,283.401672 
	C309.910797,281.582031 308.467010,279.731476 307.701385,277.895081 
z"/>
<path fill="#3A3A3A" opacity="1.000000" stroke="none" 
	d="
M366.919525,257.588470 
	C363.876617,250.530121 357.402069,252.005875 351.512177,252.002823 
	C337.862671,251.995743 324.213135,252.000610 310.563629,252.000626 
	C308.758453,252.000626 306.953247,252.000610 304.707703,252.000610 
	C305.091156,253.690887 305.356293,254.859619 305.754333,256.614136 
	C303.856873,256.758667 302.274384,256.975616 300.690826,256.983429 
	C293.200409,257.020264 285.705750,257.149078 278.220520,256.948669 
	C273.052551,256.810242 268.735931,257.618347 264.610046,261.485474 
	C261.261444,264.624054 256.336639,266.039368 252.257217,268.465027 
	C251.021225,269.199951 250.273056,270.755280 249.301453,271.934875 
	C250.671158,272.942291 251.952835,274.659332 253.424820,274.841888 
	C262.934601,276.021301 271.753387,272.643402 280.701416,270.208923 
	C281.174805,270.080109 281.856842,269.911865 282.019226,269.564484 
	C285.823853,261.426208 293.252533,264.538696 299.397614,264.232117 
	C300.841644,264.160034 302.654022,266.375336 303.842987,267.893799 
	C304.801361,269.117767 305.075470,270.877563 305.833496,272.718262 
	C293.678986,276.666809 281.488525,280.953705 268.961060,283.707733 
	C259.807770,285.720062 250.210983,285.715118 240.271576,286.187378 
	C231.036163,280.011780 229.529617,275.542084 235.578629,270.176483 
	C243.251556,263.370453 251.410980,257.012268 259.900330,251.257126 
	C267.561737,246.063248 276.604065,242.785538 283.869049,237.155258 
	C295.612518,228.054214 309.314972,226.927322 322.885254,226.231400 
	C341.162567,225.294037 359.523621,225.989365 377.848755,225.983994 
	C377.900452,227.978607 377.825043,229.986282 378.028320,231.965332 
	C378.571014,237.248245 377.950195,241.311981 371.761658,243.422119 
	C367.240387,244.963776 365.701630,251.165802 366.919525,257.588470 
z"/>
<path fill="#2F2F2F" opacity="1.000000" stroke="none" 
	d="
M163.556488,327.799316 
	C165.604477,328.497986 167.305893,329.879639 169.008545,329.881165 
	C174.631821,329.886169 180.259415,329.091919 185.878113,329.164642 
	C193.326752,329.261047 200.829788,329.413513 208.201904,330.370483 
	C231.013840,333.331726 253.650269,334.340881 276.461395,329.596100 
	C286.861328,327.432922 296.358185,324.266083 303.970642,316.900787 
	C309.159027,311.880859 314.035950,306.444458 318.407837,300.703674 
	C322.234863,295.678345 326.493042,292.770111 333.018768,292.928497 
	C343.658386,293.186676 354.308929,292.994598 365.410767,292.987061 
	C365.942413,294.018433 366.018127,295.055237 365.917542,296.676270 
	C366.165741,298.176147 366.590240,299.091766 367.014740,300.007355 
	C369.938965,302.354401 372.922302,304.633209 375.753845,307.087189 
	C376.684113,307.893433 377.221100,309.153442 377.454163,310.601501 
	C363.138855,310.997986 349.288177,311.437134 335.483063,310.833740 
	C327.355408,310.478485 320.921173,314.731201 314.992249,318.280457 
	C306.893890,323.128357 299.397003,328.288208 290.052155,331.032654 
	C263.828522,338.734161 237.437881,339.224396 210.621536,335.518372 
	C201.939133,334.318451 192.870102,333.143707 184.320953,334.362854 
	C169.258057,336.510895 155.729446,333.602173 142.438248,326.915955 
	C139.613510,325.494934 135.359314,324.844666 132.517578,325.889587 
	C120.720131,330.227478 109.139870,335.186890 97.614143,340.225281 
	C81.912743,347.089081 66.303619,354.167450 50.737217,361.332581 
	C48.581322,362.324921 46.896038,364.339722 44.992878,365.881165 
	C41.871143,367.158630 38.749416,368.436127 35.220596,369.548401 
	C32.569199,369.423981 30.205730,369.026062 28.105288,369.596527 
	C23.675600,370.799622 19.383625,372.509796 15.090204,373.663940 
	C16.793671,372.044098 18.259911,370.320099 20.118967,369.571014 
	C36.603390,362.928802 53.363960,356.931305 69.635071,349.811218 
	C87.288139,342.086334 104.505775,333.366180 121.911057,325.075317 
	C132.391022,320.083313 142.747330,316.763550 152.858292,326.074829 
	C154.147324,327.261932 156.499161,327.294922 158.358643,327.862549 
	C159.987228,332.283997 161.593079,327.804779 163.556488,327.799316 
z"/>
<path fill="#2C2C2C" opacity="1.000000" stroke="none" 
	d="
M45.358223,365.929626 
	C46.896038,364.339722 48.581322,362.324921 50.737217,361.332581 
	C66.303619,354.167450 81.912743,347.089081 97.614143,340.225281 
	C109.139870,335.186890 120.720131,330.227478 132.517578,325.889587 
	C135.359314,324.844666 139.613510,325.494934 142.438248,326.915955 
	C155.729446,333.602173 169.258057,336.510895 184.320953,334.362854 
	C192.870102,333.143707 201.939133,334.318451 210.621536,335.518372 
	C237.437881,339.224396 263.828522,338.734161 290.052155,331.032654 
	C299.397003,328.288208 306.893890,323.128357 314.992249,318.280457 
	C320.921173,314.731201 327.355408,310.478485 335.483063,310.833740 
	C349.288177,311.437134 363.138855,310.997986 377.427795,310.994263 
	C377.923523,311.973969 377.917786,312.960480 378.007355,313.938263 
	C378.547791,319.836975 378.619659,325.427063 370.832458,326.690552 
	C370.197235,326.793610 369.699951,327.746979 369.065857,328.652588 
	C353.209656,328.669189 337.415283,327.867249 321.647888,328.231934 
	C315.030518,328.384979 308.455505,330.946075 301.886932,332.519867 
	C284.199554,336.757690 267.157288,343.288849 248.390549,343.277466 
	C229.862762,343.266235 211.692139,340.406799 193.336990,339.243408 
	C186.093018,338.784241 178.743958,339.483246 171.473938,340.052948 
	C160.852692,340.885193 151.804764,336.363617 142.462662,332.446350 
	C139.481018,331.196106 135.660782,330.315948 132.657181,331.046509 
	C122.735634,333.459564 112.830444,335.711670 103.490524,340.518127 
	C87.537491,348.727814 70.960960,355.723419 54.685925,363.313873 
	C53.086674,364.059753 51.762917,365.396301 50.135880,366.763763 
	C48.548172,366.705231 47.135864,366.341644 45.358223,365.929626 
z"/>
<path fill="#3F3F3F" opacity="1.000000" stroke="none" 
	d="
M377.827087,225.628510 
	C359.523621,225.989365 341.162567,225.294037 322.885254,226.231400 
	C309.314972,226.927322 295.612518,228.054214 283.869049,237.155258 
	C276.604065,242.785538 267.561737,246.063248 259.900330,251.257126 
	C251.410980,257.012268 243.251556,263.370453 235.578629,270.176483 
	C229.529617,275.542084 231.036163,280.011780 239.876129,286.032471 
	C231.836044,285.505554 223.651062,284.711548 216.509048,284.018738 
	C227.215408,272.629639 237.775742,261.395874 248.892395,250.273651 
	C252.438583,248.949585 255.700333,247.897827 258.368530,246.008041 
	C267.173004,239.772324 275.515839,232.860062 284.504608,226.916336 
	C293.477875,220.982849 302.828583,215.545166 312.364685,210.561432 
	C320.049133,206.545364 327.543854,201.922729 337.126587,202.844330 
	C347.684235,203.859695 358.358215,203.665848 368.981506,203.998779 
	C363.134796,210.714233 367.461975,222.203552 375.931244,224.054413 
	C376.612213,224.203232 377.183258,224.854980 377.827087,225.628510 
z"/>
<path fill="#626262" opacity="1.000000" stroke="none" 
	d="
M294.414673,152.832977 
	C293.663116,144.950974 285.468842,137.060974 277.787262,136.989609 
	C244.332840,136.678802 210.877548,136.410568 177.425995,135.902298 
	C173.021698,135.835373 168.637070,134.474045 164.243332,133.712219 
	C164.228241,133.017288 164.213150,132.322372 164.198059,131.627441 
	C165.226318,131.100464 166.222580,130.200302 167.288177,130.108932 
	C172.907928,129.627090 178.544403,129.062546 184.176468,129.047440 
	C218.996201,128.954041 253.825806,128.556747 288.629852,129.301300 
	C297.712555,129.495605 303.222229,125.083672 308.889679,120.015747 
	C324.345306,106.195122 335.275452,88.657158 347.629913,72.267548 
	C353.275604,64.777878 360.187866,58.242966 366.826782,51.111259 
	C369.840485,52.820053 372.337799,55.254345 375.328766,56.400558 
	C378.087280,57.457672 378.097931,59.036057 377.437592,61.589066 
	C367.161224,60.156773 359.237030,63.973988 353.157166,71.037338 
	C346.359467,78.934677 340.517700,87.646660 334.049927,95.838272 
	C326.253723,105.712349 318.549011,115.688362 310.219788,125.102783 
	C303.111420,133.137268 296.546326,141.002335 299.004242,152.744507 
	C297.610535,152.807953 296.216858,152.871399 294.414673,152.832977 
z"/>
<path fill="#565656" opacity="1.000000" stroke="none" 
	d="
M316.007019,152.748215 
	C312.972229,152.812393 309.937439,152.876572 306.459290,152.426254 
	C306.849152,147.896423 306.771851,143.359299 308.710022,139.977158 
	C312.449249,133.452087 317.131958,127.427078 321.782257,121.475037 
	C327.472290,114.192146 333.442291,107.121452 339.452454,100.096947 
	C346.677155,91.652985 355.889282,88.304451 366.899719,89.990730 
	C368.162445,95.386833 371.923859,98.404808 377.945160,98.262978 
	C377.945160,103.488213 378.061615,108.723877 377.829498,113.944031 
	C377.791199,114.805367 376.304047,115.706215 375.350555,116.402740 
	C372.839722,118.236931 370.254059,119.968666 367.060913,121.705978 
	C364.400848,121.113655 362.396790,120.176674 360.351440,120.075539 
	C355.541168,119.837677 350.706665,120.133911 345.889984,119.973312 
	C331.841553,119.504906 324.323212,129.093201 316.982300,138.781113 
	C313.755219,143.039932 315.307098,148.012787 316.007019,152.748215 
z"/>
<path fill="#464646" opacity="1.000000" stroke="none" 
	d="
M257.921509,240.810730 
	C265.344421,233.598602 272.767334,226.386490 280.877380,219.055450 
	C283.344910,218.150726 285.323029,217.640656 286.870911,216.530655 
	C293.045929,212.102539 298.658051,206.684052 305.286407,203.145554 
	C313.553802,198.732086 320.153259,192.852051 325.894409,185.703903 
	C330.016663,180.571396 334.687195,177.404388 341.977386,177.785995 
	C349.482117,178.178833 357.073212,176.840866 364.632751,176.357910 
	C365.724701,176.288147 366.851532,176.764206 367.962219,176.987686 
	C371.079163,178.989655 374.196075,180.991638 377.846405,183.336212 
	C377.846405,187.217010 377.846405,191.832275 377.258118,196.772781 
	C367.728729,196.731613 358.775818,196.545303 349.849060,195.959854 
	C333.200623,194.868042 318.691284,200.397949 305.347931,209.796860 
	C302.914948,211.510635 300.519012,213.277252 298.077972,214.979294 
	C287.495422,222.358124 276.962250,229.810623 266.268951,237.025650 
	C263.771973,238.710449 260.718811,239.570969 257.921509,240.810730 
z"/>
<path fill="#4A4A4A" opacity="1.000000" stroke="none" 
	d="
M368.016541,176.609009 
	C366.851532,176.764206 365.724701,176.288147 364.632751,176.357910 
	C357.073212,176.840866 349.482117,178.178833 341.977386,177.785995 
	C334.687195,177.404388 330.016663,180.571396 325.894409,185.703903 
	C320.153259,192.852051 313.553802,198.732086 305.286407,203.145554 
	C298.658051,206.684052 293.045929,212.102539 286.870911,216.530655 
	C285.323029,217.640656 283.344910,218.150726 281.181274,218.928741 
	C286.372162,213.395599 291.946289,207.870224 298.168823,202.161102 
	C299.447662,201.203568 300.078094,200.429810 300.708527,199.656052 
	C300.708527,199.656052 300.794617,199.792740 301.120117,199.799011 
	C302.213318,198.769531 302.981018,197.733749 303.748688,196.697983 
	C303.748688,196.697983 303.860992,196.847397 304.163391,196.845688 
	C305.402863,196.592392 306.620605,196.633957 307.235138,196.045547 
	C317.553986,186.164749 327.257843,175.762695 332.892029,162.348541 
	C334.906647,157.552048 339.255066,154.033279 344.461884,154.013260 
	C355.585205,153.970490 366.708801,153.996536 377.832275,153.994400 
	C377.867126,154.442413 377.901978,154.890442 377.620239,155.743149 
	C376.871368,156.736191 376.439117,157.324539 376.006866,157.912903 
	C375.602722,157.949417 375.198547,157.985931 374.263489,158.132874 
	C373.442780,158.412613 373.207184,158.638474 373.025818,158.920898 
	C373.025818,158.920898 372.621826,159.021240 372.032471,159.040543 
	C370.296814,160.345367 369.150482,161.630890 368.004150,162.916412 
	C363.968140,167.374725 367.345276,171.795883 368.016541,176.609009 
z"/>
<path fill="#4D4D4D" opacity="1.000000" stroke="none" 
	d="
M377.886719,153.534943 
	C366.708801,153.996536 355.585205,153.970490 344.461884,154.013260 
	C339.255066,154.033279 334.906647,157.552048 332.892029,162.348541 
	C327.257843,175.762695 317.553986,186.164749 307.235138,196.045547 
	C306.620605,196.633957 305.402863,196.592392 304.086884,196.792023 
	C305.489136,194.822037 307.052643,192.622116 309.096191,191.043732 
	C313.572388,187.586472 315.545715,182.953049 316.914246,177.277878 
	C318.976898,175.357269 321.264221,173.979462 321.779724,172.112442 
	C324.126465,163.613434 326.233582,155.025391 327.860168,146.362961 
	C328.420807,143.377274 328.985077,142.073181 332.240845,141.882645 
	C335.616394,141.685104 340.393158,141.665848 341.964630,139.598236 
	C344.801483,135.865799 347.940887,136.021149 351.536865,136.006271 
	C357.345947,135.982254 363.155212,135.998016 368.964386,135.996979 
	C370.118958,136.930450 371.273499,137.863922 372.880066,139.125320 
	C373.575897,139.685516 373.857910,139.853897 374.178070,139.958389 
	C377.308228,140.296204 378.263306,142.144455 378.038055,145.109055 
	C377.837250,147.751709 377.960785,150.419037 377.886719,153.534943 
z"/>
<path fill="#505050" opacity="1.000000" stroke="none" 
	d="
M368.817780,135.666779 
	C363.155212,135.998016 357.345947,135.982254 351.536865,136.006271 
	C347.940887,136.021149 344.801483,135.865799 341.964630,139.598236 
	C340.393158,141.665848 335.616394,141.685104 332.240845,141.882645 
	C328.985077,142.073181 328.420807,143.377274 327.860168,146.362961 
	C326.233582,155.025391 324.126465,163.613434 321.779724,172.112442 
	C321.264221,173.979462 318.976898,175.357269 317.124207,176.972031 
	C318.525330,169.212784 320.307831,161.441849 322.180939,153.275818 
	C320.051025,153.147705 318.444824,153.051086 316.422821,152.851349 
	C315.307098,148.012787 313.755219,143.039932 316.982300,138.781113 
	C324.323212,129.093201 331.841553,119.504906 345.889984,119.973312 
	C350.706665,120.133911 355.541168,119.837677 360.351440,120.075539 
	C362.396790,120.176674 364.400848,121.113655 366.766083,121.867340 
	C367.082703,122.495506 367.056915,122.927124 366.734711,123.732941 
	C366.587311,124.733826 366.736359,125.360489 366.885376,125.987152 
	C365.388336,129.503281 365.757050,132.663025 368.817780,135.666779 
z"/>
<path fill="#3A3A3A" opacity="1.000000" stroke="none" 
	d="
M147.990082,310.000366 
	C148.958984,311.446777 149.927887,312.893158 150.676987,314.899963 
	C142.474213,313.807922 134.721161,314.455841 127.362701,318.066895 
	C121.246399,321.068329 115.320122,324.467865 109.144447,327.335205 
	C95.577507,333.634277 82.037628,340.022552 68.244835,345.796661 
	C49.752064,353.538330 31.731131,362.677765 11.697859,366.214691 
	C10.671057,366.395996 9.800027,367.459595 8.856478,368.112427 
	C6.615449,367.317352 4.374413,366.522247 2.117006,365.351379 
	C3.845916,365.107117 5.591195,365.238678 7.073749,365.350433 
	C6.369363,359.786621 5.688393,354.407776 5.011794,348.589417 
	C6.128757,347.875977 7.241349,347.601990 8.752872,347.602966 
	C9.458410,348.828735 9.770430,349.777740 10.070776,350.730469 
	C13.050262,360.181305 14.341346,361.081848 23.974604,357.428802 
	C44.160412,349.774261 64.305138,341.988770 84.260803,333.757782 
	C97.764984,328.187836 111.190140,322.287506 124.125710,315.530060 
	C131.836685,311.501953 139.605713,309.984497 147.990082,310.000366 
z"/>
<path fill="#353535" opacity="1.000000" stroke="none" 
	d="
M8.958690,368.305969 
	C9.800027,367.459595 10.671057,366.395996 11.697859,366.214691 
	C31.731131,362.677765 49.752064,353.538330 68.244835,345.796661 
	C82.037628,340.022552 95.577507,333.634277 109.144447,327.335205 
	C115.320122,324.467865 121.246399,321.068329 127.362701,318.066895 
	C134.721161,314.455841 142.474213,313.807922 150.726654,315.234467 
	C153.377289,319.065369 155.758438,323.122192 158.249115,327.520813 
	C156.499161,327.294922 154.147324,327.261932 152.858292,326.074829 
	C142.747330,316.763550 132.391022,320.083313 121.911057,325.075317 
	C104.505775,333.366180 87.288139,342.086334 69.635071,349.811218 
	C53.363960,356.931305 36.603390,362.928802 20.118967,369.571014 
	C18.259911,370.320099 16.793671,372.044098 15.081870,374.022583 
	C14.998253,375.208282 14.978026,375.687347 14.957798,376.166412 
	C13.830317,374.201660 12.702839,372.236938 11.106871,369.906067 
	C10.333016,369.380066 10.027651,369.220184 9.722282,369.060333 
	C9.448223,368.936584 9.227766,368.749664 8.958690,368.305969 
z"/>
<path fill="#424242" opacity="1.000000" stroke="none" 
	d="
M257.615967,240.957092 
	C260.718811,239.570969 263.771973,238.710449 266.268951,237.025650 
	C276.962250,229.810623 287.495422,222.358124 298.077972,214.979294 
	C300.519012,213.277252 302.914948,211.510635 305.347931,209.796860 
	C318.691284,200.397949 333.200623,194.868042 349.849060,195.959854 
	C358.775818,196.545303 367.728729,196.731613 377.143677,197.180878 
	C376.678833,198.184036 375.740173,199.104340 374.256989,199.878662 
	C373.147125,200.108673 372.581787,200.484680 372.016449,200.860687 
	C371.091919,201.714676 370.167389,202.568634 369.112183,203.710693 
	C358.358215,203.665848 347.684235,203.859695 337.126587,202.844330 
	C327.543854,201.922729 320.049133,206.545364 312.364685,210.561432 
	C302.828583,215.545166 293.477875,220.982849 284.504608,226.916336 
	C275.515839,232.860062 267.173004,239.772324 258.368530,246.008041 
	C255.700333,247.897827 252.438583,248.949585 249.206696,250.151520 
	C251.746613,246.979721 254.528519,244.041595 257.615967,240.957092 
z"/>
<path fill="#5C5C5C" opacity="1.000000" stroke="none" 
	d="
M366.938232,89.610336 
	C355.889282,88.304451 346.677155,91.652985 339.452454,100.096947 
	C333.442291,107.121452 327.472290,114.192146 321.782257,121.475037 
	C317.131958,127.427078 312.449249,133.452087 308.710022,139.977158 
	C306.771851,143.359299 306.849152,147.896423 306.014954,152.325165 
	C304.940308,152.808380 303.866608,152.878204 302.399689,152.434250 
	C303.777863,146.301407 304.274963,139.763474 307.546539,135.226028 
	C320.134064,117.767998 333.430420,100.806908 346.878540,83.993301 
	C350.307648,79.706032 354.985504,76.221146 359.601349,73.132362 
	C364.649475,69.754349 369.414764,71.936905 370.083374,77.226532 
	C367.275452,80.768959 365.522858,84.584503 366.938232,89.610336 
z"/>
<path fill="#5F5F5F" opacity="1.000000" stroke="none" 
	d="
M370.405701,77.034187 
	C369.414764,71.936905 364.649475,69.754349 359.601349,73.132362 
	C354.985504,76.221146 350.307648,79.706032 346.878540,83.993301 
	C333.430420,100.806908 320.134064,117.767998 307.546539,135.226028 
	C304.274963,139.763474 303.777863,146.301407 302.006470,152.330719 
	C301.251709,152.809387 300.496918,152.877808 299.373199,152.845367 
	C296.546326,141.002335 303.111420,133.137268 310.219788,125.102783 
	C318.549011,115.688362 326.253723,105.712349 334.049927,95.838272 
	C340.517700,87.646660 346.359467,78.934677 353.157166,71.037338 
	C359.237030,63.973988 367.161224,60.156773 377.380676,61.994530 
	C377.887939,63.293499 377.982635,64.594261 377.990082,65.895515 
	C378.036835,74.080452 378.030426,74.080490 370.405701,77.034187 
z"/>
<path fill="#2C2C2C" opacity="1.000000" stroke="none" 
	d="
M15.098875,376.531921 
	C14.978026,375.687347 14.998253,375.208282 15.026814,374.370544 
	C19.383625,372.509796 23.675600,370.799622 28.105288,369.596527 
	C30.205730,369.026062 32.569199,369.423981 34.920738,369.727966 
	C33.528511,372.650330 32.335552,377.135864 30.470139,377.435547 
	C25.549229,378.226105 20.336496,377.200165 15.098875,376.531921 
z"/>
<path fill="#4D4D4D" opacity="1.000000" stroke="none" 
	d="
M368.320892,162.858795 
	C369.150482,161.630890 370.296814,160.345367 371.826111,159.067657 
	C371.018616,160.317352 369.828125,161.559250 368.320892,162.858795 
z"/>
<path fill="#757575" opacity="1.000000" stroke="none" 
	d="
M366.917267,6.655815 
	C366.243988,5.939188 365.626251,4.890165 365.009399,3.492874 
	C365.664429,4.204210 366.318634,5.263814 366.917267,6.655815 
z"/>
<path fill="#353535" opacity="1.000000" stroke="none" 
	d="
M367.026733,299.668762 
	C366.590240,299.091766 366.165741,298.176147 365.963379,297.063141 
	C366.469879,297.687225 366.754272,298.508698 367.026733,299.668762 
z"/>
<path fill="#464646" opacity="1.000000" stroke="none" 
	d="
M372.309265,200.890625 
	C372.581787,200.484680 373.147125,200.108673 373.892151,199.925339 
	C373.581909,200.385544 373.091980,200.653061 372.309265,200.890625 
z"/>
<path fill="#565656" opacity="1.000000" stroke="none" 
	d="
M366.949371,125.659912 
	C366.736359,125.360489 366.587311,124.733826 366.701416,124.055717 
	C366.980774,124.447075 366.997040,124.889870 366.949371,125.659912 
z"/>
<path fill="#4D4D4D" opacity="1.000000" stroke="none" 
	d="
M376.336975,157.920898 
	C376.439117,157.324539 376.871368,156.736191 377.586792,156.079224 
	C377.468994,156.650024 377.068024,157.289459 376.336975,157.920898 
z"/>
<path fill="#3A3A3A" opacity="1.000000" stroke="none" 
	d="
M9.884970,369.269043 
	C10.027651,369.220184 10.333016,369.380066 10.803238,369.739716 
	C10.661282,369.785553 10.354467,369.631622 9.884970,369.269043 
z"/>
<path fill="#4D4D4D" opacity="1.000000" stroke="none" 
	d="
M373.280365,158.875504 
	C373.207184,158.638474 373.442780,158.412613 373.958801,158.143188 
	C373.968323,158.305405 373.751617,158.567749 373.280365,158.875504 
z"/>
<path fill="#505050" opacity="1.000000" stroke="none" 
	d="
M374.059784,139.722733 
	C373.857910,139.853897 373.575897,139.685516 373.177673,139.259811 
	C373.329346,139.206604 373.635406,139.346832 374.059784,139.722733 
z"/>
<path fill="#676767" opacity="1.000000" stroke="none" 
	d="
M85.499130,147.914062 
	C83.828072,158.267151 81.788437,168.527802 79.318619,178.723022 
	C78.382332,175.255280 77.514908,171.859619 77.452049,168.449127 
	C77.349472,162.882370 77.867363,157.306412 77.893661,151.733246 
	C77.899101,150.580399 76.828384,149.449951 76.376381,148.262466 
	C74.896385,144.374207 72.489014,140.524185 72.247475,136.549515 
	C71.836433,129.785583 71.737206,129.018143 64.733322,129.006271 
	C48.112312,128.978134 31.491245,128.981171 14.870204,128.971619 
	C13.774650,124.580589 12.919798,120.050110 8.135580,117.402603 
	C8.196678,115.199272 8.877493,113.218018 8.622312,111.365707 
	C8.045344,107.177628 7.006339,103.053192 6.085397,98.517830 
	C7.432844,97.172226 8.850158,96.211662 10.549444,95.096512 
	C11.420424,95.251801 12.325224,95.413445 12.550738,95.893929 
	C15.599967,102.390579 21.451780,100.978500 26.767515,100.990372 
	C40.254177,101.020500 53.770115,100.496574 67.211884,101.274055 
	C71.924690,101.546646 76.517937,104.842522 81.006783,107.077240 
	C81.743439,107.443977 81.817726,109.455170 81.918427,110.728477 
	C82.267006,115.136223 82.602577,119.550354 82.737343,123.968338 
	C82.923004,130.054657 82.761757,136.155426 83.094513,142.231094 
	C83.198296,144.126083 84.420403,145.959839 85.499130,147.914062 
z"/>
<path fill="#757575" opacity="1.000000" stroke="none" 
	d="
M92.836670,113.054337 
	C92.990692,113.603493 92.865440,114.199509 92.446831,114.925514 
	C92.288116,114.404068 92.422760,113.752625 92.836670,113.054337 
z"/>
<path fill="#5A5A5A" opacity="1.000000" stroke="none" 
	d="
M69.133591,225.987411 
	C68.693451,230.024963 67.881180,233.860367 66.566277,237.761368 
	C64.201050,229.193863 61.048122,220.939651 62.554054,211.591476 
	C63.501945,205.707367 61.822338,199.432312 56.395103,195.065002 
	C55.258339,194.150253 54.735020,191.759506 54.870354,190.126938 
	C55.147854,186.779541 54.271175,185.077103 50.669449,184.981277 
	C41.538692,184.738327 32.398201,183.884048 23.288908,184.163742 
	C17.463579,184.342590 14.131628,182.550995 12.952213,176.890411 
	C13.603016,174.194962 14.253819,171.499527 14.895507,168.423401 
	C15.968271,168.358063 17.790546,168.407089 18.014881,169.030823 
	C19.808558,174.017944 23.910994,172.979980 27.612648,172.992188 
	C35.438774,173.017990 43.267315,173.113022 51.090332,172.955139 
	C55.303486,172.870102 58.217163,174.326263 60.710293,177.881836 
	C64.207611,182.869568 68.215797,186.523026 66.719490,194.286209 
	C65.013176,203.138901 66.700203,212.660904 67.087273,221.884674 
	C67.142731,223.205963 68.179070,224.486084 69.133591,225.987411 
z"/>
<path fill="#5F5F5F" opacity="1.000000" stroke="none" 
	d="
M75.964798,194.999969 
	C75.165680,199.132812 74.366547,203.265656 73.370651,207.721420 
	C72.471786,207.240387 71.192352,206.458115 71.161209,205.628967 
	C70.958214,200.223633 71.378441,194.776093 70.890205,189.406418 
	C70.520103,185.336075 68.932327,181.391815 68.203072,177.334518 
	C67.457161,173.184555 67.086563,168.966537 66.577263,164.775192 
	C66.480003,163.974792 66.823349,162.710754 66.418930,162.421280 
	C62.378223,159.528946 58.489510,155.053299 54.046299,154.374832 
	C44.289616,152.885025 34.232983,153.026672 24.305021,153.125687 
	C18.985043,153.178741 15.984081,150.910339 13.739992,146.529160 
	C12.477204,144.063797 10.776986,141.822479 9.104781,139.174225 
	C9.418463,138.308578 9.901196,137.748947 10.992207,137.140076 
	C14.132204,139.531891 16.599516,142.045792 19.231659,144.373306 
	C20.115891,145.155182 21.397646,145.860703 22.535063,145.923401 
	C30.807661,146.379456 39.088039,146.719101 47.369656,146.976715 
	C51.687843,147.111023 56.040604,146.696671 60.329876,147.074127 
	C67.962791,147.745804 72.622200,148.448914 73.031792,158.753922 
	C73.148476,161.689667 73.375877,164.688370 72.942009,167.566162 
	C71.575165,176.632095 77.171761,185.193115 74.756523,194.307587 
	C74.725800,194.423523 75.543251,194.764206 75.964798,194.999969 
z"/>
<path fill="#3F3F3F" opacity="1.000000" stroke="none" 
	d="
M148.037720,309.676514 
	C139.605713,309.984497 131.836685,311.501953 124.125710,315.530060 
	C111.190140,322.287506 97.764984,328.187836 84.260803,333.757782 
	C64.305138,341.988770 44.160412,349.774261 23.974604,357.428802 
	C14.341346,361.081848 13.050262,360.181305 10.070776,350.730469 
	C9.770430,349.777740 9.458410,348.828735 9.088783,347.518677 
	C13.290923,344.198395 14.933077,339.961853 15.167011,334.203674 
	C17.383327,332.976257 19.395170,332.085022 21.415453,332.065460 
	C34.568947,331.938110 47.724426,332.033783 60.878872,331.973083 
	C63.689224,331.960114 66.665764,332.137573 69.278748,331.315338 
	C81.258621,327.545654 93.203117,323.637451 105.022568,319.395203 
	C110.794014,317.323669 116.100113,313.912689 121.911438,312.005707 
	C129.576126,309.490570 137.530319,307.857666 145.360046,305.845520 
	C146.268494,307.014557 147.176926,308.183624 148.037720,309.676514 
z"/>
<path fill="#424242" opacity="1.000000" stroke="none" 
	d="
M145.351166,305.605164 
	C137.530319,307.857666 129.576126,309.490570 121.911438,312.005707 
	C116.100113,313.912689 110.794014,317.323669 105.022568,319.395203 
	C93.203117,323.637451 81.258621,327.545654 69.278748,331.315338 
	C66.665764,332.137573 63.689224,331.960114 60.878872,331.973083 
	C47.724426,332.033783 34.568947,331.938110 21.415453,332.065460 
	C19.395170,332.085022 17.383327,332.976257 15.143293,333.802246 
	C13.355703,332.006012 11.792404,329.871948 10.047619,327.462433 
	C10.356250,325.609070 11.386192,323.979065 11.239760,322.462616 
	C10.705611,316.931000 9.778758,311.437256 9.006212,305.500977 
	C9.776831,304.465088 10.541128,303.857452 11.915363,303.162598 
	C13.239915,303.476593 14.306439,303.701416 14.610502,304.308289 
	C16.254543,307.589417 18.431091,310.024109 22.336971,310.469879 
	C22.841242,310.527435 23.492397,311.263947 23.679598,311.819397 
	C25.050684,315.887604 28.406694,315.713165 31.803186,316.062683 
	C39.520569,316.856903 47.325642,317.432617 54.875748,319.093933 
	C73.734390,323.243500 91.754890,320.828796 109.273720,313.335938 
	C120.702240,308.447876 131.895004,302.795837 144.908386,304.048920 
	C145.053024,304.487549 145.197647,304.926178 145.351166,305.605164 
z"/>
<path fill="#464646" opacity="1.000000" stroke="none" 
	d="
M144.909958,303.759735 
	C131.895004,302.795837 120.702240,308.447876 109.273720,313.335938 
	C91.754890,320.828796 73.734390,323.243500 54.875748,319.093933 
	C47.325642,317.432617 39.520569,316.856903 31.803186,316.062683 
	C28.406694,315.713165 25.050684,315.887604 23.679598,311.819397 
	C23.492397,311.263947 22.841242,310.527435 22.336971,310.469879 
	C18.431091,310.024109 16.254543,307.589417 14.610502,304.308289 
	C14.306439,303.701416 13.239915,303.476593 12.161603,303.001770 
	C11.986307,301.979126 11.963293,300.918457 12.396500,300.098907 
	C15.931408,293.411530 15.216183,289.688171 9.137127,284.410065 
	C8.307674,278.371674 7.653828,272.623230 7.225694,266.190308 
	C10.870101,263.096680 11.501257,265.075470 12.124874,268.133789 
	C15.012952,282.297394 15.873109,283.061859 29.782951,282.928680 
	C33.881313,282.889404 36.657829,283.405731 36.207485,288.437378 
	C36.119659,289.418640 36.907738,290.688232 37.647717,291.500671 
	C43.839043,298.298340 51.459278,303.259491 59.725052,306.947815 
	C69.174545,311.164337 79.297318,311.684174 89.464485,309.942596 
	C102.564957,307.698608 113.549942,301.279572 123.366814,292.549561 
	C125.331032,290.802826 127.699730,289.510925 130.376617,287.668915 
	C130.552612,293.338318 136.249191,298.363129 141.916351,299.002777 
	C142.914734,300.492035 143.913132,301.981293 144.909958,303.759735 
z"/>
<path fill="#626262" opacity="1.000000" stroke="none" 
	d="
M76.178490,194.664337 
	C75.543251,194.764206 74.725800,194.423523 74.756523,194.307587 
	C77.171761,185.193115 71.575165,176.632095 72.942009,167.566162 
	C73.375877,164.688370 73.148476,161.689667 73.031792,158.753922 
	C72.622200,148.448914 67.962791,147.745804 60.329876,147.074127 
	C56.040604,146.696671 51.687843,147.111023 47.369656,146.976715 
	C39.088039,146.719101 30.807661,146.379456 22.535063,145.923401 
	C21.397646,145.860703 20.115891,145.155182 19.231659,144.373306 
	C16.599516,142.045792 14.132204,139.531891 11.248432,137.027435 
	C12.032619,134.436050 13.168858,131.908081 14.587650,129.175858 
	C31.491245,128.981171 48.112312,128.978134 64.733322,129.006271 
	C71.737206,129.018143 71.836433,129.785583 72.247475,136.549515 
	C72.489014,140.524185 74.896385,144.374207 76.376381,148.262466 
	C76.828384,149.449951 77.899101,150.580399 77.893661,151.733246 
	C77.867363,157.306412 77.349472,162.882370 77.452049,168.449127 
	C77.514908,171.859619 78.382332,175.255280 79.075562,179.042130 
	C78.305862,184.393997 77.349022,189.361343 76.178490,194.664337 
z"/>
<path fill="#4A4A4A" opacity="1.000000" stroke="none" 
	d="
M141.949768,298.692078 
	C136.249191,298.363129 130.552612,293.338318 130.376617,287.668915 
	C127.699730,289.510925 125.331032,290.802826 123.366814,292.549561 
	C113.549942,301.279572 102.564957,307.698608 89.464485,309.942596 
	C79.297318,311.684174 69.174545,311.164337 59.725052,306.947815 
	C51.459278,303.259491 43.839043,298.298340 37.647717,291.500671 
	C36.907738,290.688232 36.119659,289.418640 36.207485,288.437378 
	C36.657829,283.405731 33.881313,282.889404 29.782951,282.928680 
	C15.873109,283.061859 15.012952,282.297394 12.124874,268.133789 
	C11.501257,265.075470 10.870101,263.096680 7.225850,265.752319 
	C6.115701,265.981964 5.231110,265.965118 3.901091,265.939697 
	C6.643633,262.640106 12.399121,262.106232 13.564966,256.693176 
	C13.982555,254.754303 13.941591,252.716690 14.500396,250.377747 
	C17.224749,251.347549 19.709566,253.989319 21.865597,253.743805 
	C29.936289,252.824768 36.380074,255.983078 42.446491,260.458893 
	C44.721397,262.137299 47.921967,264.234009 48.285023,266.523102 
	C49.464096,273.957123 49.178040,281.616577 50.213081,289.084290 
	C50.555656,291.555939 53.192413,293.709595 54.780247,296.008636 
	C54.493866,297.739929 54.207481,299.471252 53.826305,301.775635 
	C56.913033,301.775635 59.520992,301.775635 62.679237,302.234192 
	C64.360092,303.250336 65.482346,304.271606 66.622551,304.292023 
	C75.461166,304.450378 84.305336,304.515656 93.141945,304.330627 
	C94.443710,304.303345 95.714676,302.805725 96.999893,301.988373 
	C99.172897,301.524323 101.345894,301.060272 104.122513,300.282898 
	C107.555870,298.194458 111.100296,296.986237 113.057404,294.518921 
	C116.483101,290.200134 118.842491,285.050140 121.820374,280.357361 
	C124.609383,275.962250 127.660095,271.734100 130.522385,267.384247 
	C132.832352,263.873779 138.771301,262.028381 142.464813,264.136658 
	C143.480194,264.716248 144.478760,267.556335 144.282333,267.698608 
	C140.320206,270.568329 141.418625,274.866547 141.186264,278.622101 
	C140.816238,284.602539 138.323914,290.767731 142.175522,296.531311 
	C142.111420,297.147980 142.047302,297.764679 141.949768,298.692078 
z"/>
<path fill="#505050" opacity="1.000000" stroke="none" 
	d="
M54.905708,295.618561 
	C53.192413,293.709595 50.555656,291.555939 50.213081,289.084290 
	C49.178040,281.616577 49.464096,273.957123 48.285023,266.523102 
	C47.921967,264.234009 44.721397,262.137299 42.446491,260.458893 
	C36.380074,255.983078 29.936289,252.824768 21.865597,253.743805 
	C19.709566,253.989319 17.224749,251.347549 14.526963,250.008011 
	C12.548123,247.894470 10.933194,245.804276 9.109146,243.450867 
	C11.347385,236.274216 9.121024,229.961731 6.215747,223.406036 
	C7.107276,222.486008 8.178927,221.873322 9.769344,220.957611 
	C10.501164,220.334854 10.714219,220.015152 10.927274,219.695435 
	C10.991863,219.423233 11.141857,219.211563 11.931074,218.923981 
	C12.958245,217.486389 13.431597,216.185272 13.904945,214.884140 
	C13.904944,214.884140 13.881638,214.962524 14.341948,214.960190 
	C14.968190,214.962662 15.135822,214.953827 15.299806,214.974258 
	C21.520193,215.749115 28.709377,212.459061 33.506203,219.430008 
	C33.950703,220.075974 35.764515,219.634964 36.817471,220.031067 
	C42.568550,222.194427 48.303200,224.407013 53.979389,226.757477 
	C54.757439,227.079651 55.600838,228.219147 55.694073,229.060043 
	C56.254047,234.110779 56.763641,239.177994 56.980194,244.252914 
	C57.211189,249.666290 56.781208,255.125244 57.305012,260.499481 
	C57.493286,262.431152 59.617023,264.174164 60.857468,266.003296 
	C58.915367,275.745026 56.973270,285.486755 54.905708,295.618561 
z"/>
<path fill="#565656" opacity="1.000000" stroke="none" 
	d="
M61.030510,265.650879 
	C59.617023,264.174164 57.493286,262.431152 57.305012,260.499481 
	C56.781208,255.125244 57.211189,249.666290 56.980194,244.252914 
	C56.763641,239.177994 56.254047,234.110779 55.694073,229.060043 
	C55.600838,228.219147 54.757439,227.079651 53.979389,226.757477 
	C48.303200,224.407013 42.568550,222.194427 36.817471,220.031067 
	C35.764515,219.634964 33.950703,220.075974 33.506203,219.430008 
	C28.709377,212.459061 21.520193,215.749115 15.299806,214.974258 
	C15.135822,214.953827 14.968190,214.962662 14.322092,214.924438 
	C15.626462,209.528137 13.715575,205.448517 7.020758,200.359207 
	C7.573874,198.576965 9.030426,197.011230 8.861237,195.647141 
	C8.316285,191.253418 7.172022,186.934021 6.098496,182.233566 
	C8.078270,180.324249 10.218379,178.767334 12.655351,177.050415 
	C14.131628,182.550995 17.463579,184.342590 23.288908,184.163742 
	C32.398201,183.884048 41.538692,184.738327 50.669449,184.981277 
	C54.271175,185.077103 55.147854,186.779541 54.870354,190.126938 
	C54.735020,191.759506 55.258339,194.150253 56.395103,195.065002 
	C61.822338,199.432312 63.501945,205.707367 62.554054,211.591476 
	C61.048122,220.939651 64.201050,229.193863 66.409286,238.095032 
	C64.904465,247.341553 63.054012,256.320007 61.030510,265.650879 
z"/>
<path fill="#565656" opacity="1.000000" stroke="none" 
	d="
M13.624435,215.069031 
	C13.431597,216.185272 12.958245,217.486389 12.117569,218.856049 
	C12.281471,217.701004 12.812697,216.477463 13.624435,215.069031 
z"/>
<path fill="#565656" opacity="1.000000" stroke="none" 
	d="
M10.687950,219.858429 
	C10.714219,220.015152 10.501164,220.334854 10.040207,220.807495 
	C10.011080,220.647430 10.229853,220.334427 10.687950,219.858429 
z"/>
<path fill="#565656" opacity="1.000000" stroke="none" 
	d="
M2.734136,182.127502 
	C2.850124,182.342224 2.683975,182.565475 2.309311,182.885254 
	C2.060283,182.648438 2.177350,182.366501 2.734136,182.127502 
z"/>
<path fill="#505050" opacity="1.000000" stroke="none" 
	d="
M171.992996,266.980560 
	C163.179184,275.838776 154.365372,284.696960 145.261902,293.275452 
	C145.452896,283.629730 149.495392,275.847260 155.542084,268.905365 
	C156.789871,267.472839 158.631622,265.681244 158.564087,264.126160 
	C158.207901,255.924103 155.899734,254.001617 147.576324,253.999451 
	C146.079941,253.999069 144.541626,254.228165 143.093918,253.962723 
	C132.742874,252.064804 127.354874,259.934784 122.445808,266.122589 
	C117.795578,271.984131 116.282173,280.236847 112.661301,287.051178 
	C110.679222,290.781403 107.190865,293.711212 104.381752,297.001984 
	C106.580086,286.588348 108.778419,276.174713 111.471039,265.311462 
	C113.615005,263.297760 115.883446,262.029144 116.797897,260.114014 
	C119.500626,254.453690 121.663834,248.536072 124.046112,242.722397 
	C127.630051,233.976212 131.492752,225.404922 142.209610,223.502670 
	C146.603729,222.722702 151.094955,222.079147 155.540405,222.089111 
	C163.500519,222.106949 171.478256,222.441101 179.410156,223.103683 
	C182.906464,223.395752 186.295624,224.868698 189.757202,225.707428 
	C193.088470,226.514633 193.082397,228.749985 191.782288,231.015213 
	C188.912537,236.015335 185.807632,240.882797 182.726135,245.758545 
	C178.469727,252.493286 171.621338,257.907196 171.992996,266.980560 
z"/>
<path fill="#565656" opacity="1.000000" stroke="none" 
	d="
M172.311569,266.876160 
	C171.621338,257.907196 178.469727,252.493286 182.726135,245.758545 
	C185.807632,240.882797 188.912537,236.015335 191.782288,231.015213 
	C193.082397,228.749985 193.088470,226.514633 189.757202,225.707428 
	C186.295624,224.868698 182.906464,223.395752 179.410156,223.103683 
	C171.478256,222.441101 163.500519,222.106949 155.540405,222.089111 
	C151.094955,222.079147 146.603729,222.722702 142.209610,223.502670 
	C131.492752,225.404922 127.630051,233.976212 124.046112,242.722397 
	C121.663834,248.536072 119.500626,254.453690 116.797897,260.114014 
	C115.883446,262.029144 113.615005,263.297760 111.641548,264.937439 
	C113.171661,256.257385 115.025558,247.501770 117.351204,238.301743 
	C122.400681,230.866257 127.534813,224.166779 131.395706,216.800018 
	C135.069962,209.789368 140.395020,206.996933 147.827118,206.999283 
	C164.632965,207.004623 181.439133,206.948212 198.244293,207.056320 
	C200.862213,207.073151 203.522614,207.636795 206.079056,208.281815 
	C209.412476,209.122894 211.039871,211.257294 209.141373,214.587555 
	C204.991913,221.866364 205.286209,231.173920 198.639709,237.352676 
	C197.902344,238.038162 198.234451,239.874115 198.070587,241.176514 
	C189.590439,249.708252 181.110291,258.239990 172.311569,266.876160 
z"/>
<path fill="#797979" opacity="1.000000" stroke="none" 
	d="
M98.796738,87.857025 
	C98.060944,86.562248 96.840530,84.862411 97.024361,83.331154 
	C97.913544,75.924637 99.018494,68.708755 96.274925,61.282017 
	C94.386963,56.171406 96.862740,51.129681 102.709175,48.867310 
	C109.563118,46.215069 116.913773,43.347733 124.083099,43.256557 
	C165.359253,42.731632 206.646194,42.874741 247.927673,43.110687 
	C255.867264,43.156067 263.867249,44.365459 270.620270,49.390217 
	C276.104095,53.470592 275.929138,58.366177 272.640045,64.354767 
	C269.686951,69.731537 268.920441,76.286003 266.967651,82.248337 
	C266.308472,84.260887 264.970276,86.051025 263.581085,87.975433 
	C265.023071,79.434174 266.900452,70.874596 268.559998,62.272987 
	C268.852234,60.758217 270.613220,58.077515 266.315735,57.569889 
	C264.140137,56.152317 262.589081,54.539864 260.797028,54.200584 
	C253.984116,52.910751 247.100067,51.195068 240.230530,51.139858 
	C203.409485,50.843937 166.584381,50.914879 129.761826,51.093472 
	C124.334969,51.119793 118.824326,52.015911 113.531044,53.265896 
	C111.126427,53.833733 109.157875,56.248177 106.991516,57.824974 
	C105.383530,61.457642 103.233238,64.955742 102.290871,68.753578 
	C100.763535,74.908836 100.028740,81.260765 98.796738,87.857025 
z"/>
<path fill="#7F7F7F" opacity="1.000000" stroke="none" 
	d="
M107.456169,57.894676 
	C109.157875,56.248177 111.126427,53.833733 113.531044,53.265896 
	C118.824326,52.015911 124.334969,51.119793 129.761826,51.093472 
	C166.584381,50.914879 203.409485,50.843937 240.230530,51.139858 
	C247.100067,51.195068 253.984116,52.910751 260.797028,54.200584 
	C262.589081,54.539864 264.140137,56.152317 265.904510,57.503319 
	C248.887711,57.878387 231.768265,57.965755 214.648788,57.974697 
	C179.072815,57.993279 143.496811,57.970284 107.456169,57.894676 
z"/>
<path fill="#5F5F5F" opacity="1.000000" stroke="none" 
	d="
M240.940460,198.874390 
	C234.208099,205.596741 227.475739,212.319107 220.407013,218.762466 
	C220.227066,216.679611 220.115967,214.801941 220.589539,213.085617 
	C222.071045,207.716385 220.645111,204.443924 215.188095,203.003311 
	C211.063736,201.914490 206.728806,201.146332 202.477692,201.097504 
	C184.544418,200.891495 166.605423,200.845245 148.672562,201.067291 
	C137.471680,201.205978 128.091629,204.609756 124.434227,216.789352 
	C124.046623,218.080109 122.232803,218.942581 121.080635,220.003754 
	C122.644394,211.877914 124.208145,203.752075 125.838829,195.278427 
	C164.158691,195.278427 202.073349,195.278427 240.455139,195.687042 
	C240.928345,197.021896 240.934418,197.948151 240.940460,198.874390 
z"/>
<path fill="#5A5A5A" opacity="1.000000" stroke="none" 
	d="
M120.915833,220.352386 
	C122.232803,218.942581 124.046623,218.080109 124.434227,216.789352 
	C128.091629,204.609756 137.471680,201.205978 148.672562,201.067291 
	C166.605423,200.845245 184.544418,200.891495 202.477692,201.097504 
	C206.728806,201.146332 211.063736,201.914490 215.188095,203.003311 
	C220.645111,204.443924 222.071045,207.716385 220.589539,213.085617 
	C220.115967,214.801941 220.227066,216.679611 220.103455,218.923996 
	C212.988373,226.544815 205.840485,233.725098 198.381592,241.040939 
	C198.234451,239.874115 197.902344,238.038162 198.639709,237.352676 
	C205.286209,231.173920 204.991913,221.866364 209.141373,214.587555 
	C211.039871,211.257294 209.412476,209.122894 206.079056,208.281815 
	C203.522614,207.636795 200.862213,207.073151 198.244293,207.056320 
	C181.439133,206.948212 164.632965,207.004623 147.827118,206.999283 
	C140.395020,206.996933 135.069962,209.789368 131.395706,216.800018 
	C127.534813,224.166779 122.400681,230.866257 117.487030,237.930878 
	C118.351082,232.236633 119.551056,226.468842 120.915833,220.352386 
z"/>
<path fill="#4D4D4D" opacity="1.000000" stroke="none" 
	d="
M104.238434,297.360168 
	C107.190865,293.711212 110.679222,290.781403 112.661301,287.051178 
	C116.282173,280.236847 117.795578,271.984131 122.445808,266.122589 
	C127.354874,259.934784 132.742874,252.064804 143.093918,253.962723 
	C144.541626,254.228165 146.079941,253.999069 147.576324,253.999451 
	C155.899734,254.001617 158.207901,255.924103 158.564087,264.126160 
	C158.631622,265.681244 156.789871,267.472839 155.542084,268.905365 
	C149.495392,275.847260 145.452896,283.629730 144.964249,293.411682 
	C144.230087,294.637695 143.503891,295.447693 142.476608,296.394501 
	C138.323914,290.767731 140.816238,284.602539 141.186264,278.622101 
	C141.418625,274.866547 140.320206,270.568329 144.282333,267.698608 
	C144.478760,267.556335 143.480194,264.716248 142.464813,264.136658 
	C138.771301,262.028381 132.832352,263.873779 130.522385,267.384247 
	C127.660095,271.734100 124.609383,275.962250 121.820374,280.357361 
	C118.842491,285.050140 116.483101,290.200134 113.057404,294.518921 
	C111.100296,296.986237 107.555870,298.194458 104.344292,299.984436 
	C104.006668,299.238953 104.050888,298.478668 104.238434,297.360168 
z"/>
<path fill="#4D4D4D" opacity="1.000000" stroke="none" 
	d="
M96.541901,301.880798 
	C95.714676,302.805725 94.443710,304.303345 93.141945,304.330627 
	C84.305336,304.515656 75.461166,304.450378 66.622551,304.292023 
	C65.482346,304.271606 64.360092,303.250336 63.114765,302.339294 
	C74.027977,301.914978 85.055939,301.844116 96.541901,301.880798 
z"/>
<path fill="#3A3A3A" opacity="1.000000" stroke="none" 
	d="
M307.471497,278.191193 
	C308.467010,279.731476 309.910797,281.582031 309.872894,283.401672 
	C309.752075,289.202881 308.621368,294.808807 303.476135,298.933105 
	C304.507538,292.165497 305.874542,285.326385 307.471497,278.191193 
z"/>
<path fill="#7F7F7F" opacity="1.000000" stroke="none" 
	d="
M151.649017,107.439713 
	C149.377380,110.010933 146.690628,112.457008 143.681488,114.975388 
	C144.286240,107.142891 144.286240,107.142891 151.649017,107.439713 
z"/>
<path fill="#7F7F7F" opacity="1.000000" stroke="none" 
	d="
M241.257004,198.774353 
	C240.934418,197.948151 240.928345,197.021896 240.913818,195.747864 
	C241.797592,195.400055 242.689804,195.400055 244.165665,195.400055 
	C243.095947,196.751266 242.334747,197.712784 241.257004,198.774353 
z"/>
<path fill="#4D4D4D" opacity="1.000000" stroke="none" 
	d="
M303.449951,196.804703 
	C302.981018,197.733749 302.213318,198.769531 301.052368,199.755066 
	C301.489777,198.773697 302.320465,197.842560 303.449951,196.804703 
z"/>
<path fill="#4D4D4D" opacity="1.000000" stroke="none" 
	d="
M300.423065,199.758514 
	C300.078094,200.429810 299.447662,201.203568 298.468872,202.008026 
	C298.792877,201.312805 299.465240,200.586884 300.423065,199.758514 
z"/>
</svg>